Pretension2-Black.ufo
<glyph name="nine.ss01" format="2">
  <advance width="1340"/>
  <unicode hex="0039"/>
  <unicode hex="E070"/>
  <outline>
    <contour>
      <point x="674" y="1510" type="qcurve" smooth="yes"/>
      <point x="831" y="1510"/>
      <point x="1102" y="1396"/>
      <point x="1270" y="1169"/>
      <point x="1270" y="998" type="qcurve" smooth="yes"/>
      <point x="1270" y="872"/>
      <point x="1176" y="640"/>
      <point x="1096" y="522" type="qcurve" smooth="yes"/>
      <point x="744" y="0" type="line"/>
      <point x="348" y="0" type="line"/>
      <point x="790" y="650" type="line"/>
      <point x="928" y="650" type="line"/>
      <point x="906" y="619"/>
      <point x="805" y="556"/>
      <point x="657" y="514"/>
      <point x="566" y="514" type="qcurve" smooth="yes"/>
      <point x="428" y="514"/>
      <point x="215" y="623"/>
      <point x="94" y="831"/>
      <point x="94" y="978" type="qcurve" smooth="yes"/>
      <point x="94" y="1141"/>
      <point x="244" y="1380"/>
      <point x="507" y="1510"/>
    </contour>
    <contour>
      <point x="678" y="1204" type="qcurve" smooth="yes"/>
      <point x="618" y="1204"/>
      <point x="524" y="1149"/>
      <point x="470" y="1054"/>
      <point x="470" y="992" type="qcurve" smooth="yes"/>
      <point x="470" y="931"/>
      <point x="524" y="835"/>
      <point x="618" y="780"/>
      <point x="678" y="780" type="qcurve" smooth="yes"/>
      <point x="737" y="780"/>
      <point x="830" y="835"/>
      <point x="884" y="931"/>
      <point x="884" y="992" type="qcurve" smooth="yes"/>
      <point x="884" y="1054"/>
      <point x="830" y="1149"/>
      <point x="737" y="1204"/>
    </contour>
  </outline>
</glyph>
<glyph name="E" format="2">
  <advance width="1255"/>
  <unicode hex="0045"/>
  <anchor x="658" y="0" name="m.uni0326"/>
  <anchor x="658" y="1490" name="m.uni030F_1"/>
  <anchor x="647" y="0" name="m.uni0327_3"/>
  <anchor x="1283" y="0" name="m.uni0328_4"/>
  <outline>
    <contour>
      <point x="96" y="0" type="line"/>
      <point x="96" y="1490" type="line"/>
      <point x="1170" y="1490" type="line"/>
      <point x="1170" y="1164" type="line"/>
      <point x="500" y="1164" type="line"/>
      <point x="500" y="912" type="line"/>
      <point x="1114" y="912" type="line"/>
      <point x="1114" y="594" type="line"/>
      <point x="500" y="594" type="line"/>
      <point x="500" y="326" type="line"/>
      <point x="1166" y="326" type="line"/>
      <point x="1166" y="0" type="line"/>
    </contour>
  </outline>
</glyph>
<glyph name="H" format="2">
  <advance width="1536"/>
  <unicode hex="0048"/>
  <anchor x="787" y="0" name="m.uni0326"/>
  <anchor x="787" y="1490" name="m.uni030F_1"/>
  <anchor x="347" y="0" name="m.uni0327_3"/>
  <outline>
    <contour>
      <point x="96" y="0" type="line"/>
      <point x="96" y="1490" type="line"/>
      <point x="500" y="1490" type="line"/>
      <point x="500" y="924" type="line"/>
      <point x="1036" y="924" type="line"/>
      <point x="1036" y="1490" type="line"/>
      <point x="1440" y="1490" type="line"/>
      <point x="1440" y="0" type="line"/>
      <point x="1036" y="0" type="line"/>
      <point x="1036" y="598" type="line"/>
      <point x="500" y="598" type="line"/>
      <point x="500" y="0" type="line"/>
    </contour>
  </outline>
</glyph>
<glyph name="I" format="2">
  <advance width="596"/>
  <unicode hex="0049"/>
  <anchor x="346" y="0" name="m.uni0326"/>
  <anchor x="350" y="1490" name="m.uni030F_1"/>
  <anchor x="668" y="0" name="m.uni0328_4"/>
  <outline>
    <contour>
      <point x="500" y="1490" type="line"/>
      <point x="500" y="0" type="line"/>
      <point x="96" y="0" type="line"/>
      <point x="96" y="1490" type="line"/>
    </contour>
  </outline>
</glyph>
<glyph name="R" format="2">
  <advance width="1368"/>
  <unicode hex="0052"/>
  <anchor x="735" y="0" name="m.uni0326"/>
  <anchor x="712" y="1490" name="m.uni030F_1"/>
  <outline>
    <contour>
      <point x="96" y="0" type="line"/>
      <point x="96" y="1490" type="line"/>
      <point x="738" y="1490" type="line" smooth="yes"/>
      <point x="904" y="1490"/>
      <point x="1153" y="1369"/>
      <point x="1292" y="1142"/>
      <point x="1292" y="984" type="qcurve" smooth="yes"/>
      <point x="1292" y="824"/>
      <point x="1150" y="604"/>
      <point x="894" y="492"/>
      <point x="724" y="492" type="qcurve" smooth="yes"/>
      <point x="340" y="492" type="line"/>
      <point x="340" y="806" type="line"/>
      <point x="642" y="806" type="line" smooth="yes"/>
      <point x="714" y="806"/>
      <point x="816" y="842"/>
      <point x="870" y="920"/>
      <point x="870" y="984" type="qcurve" smooth="yes"/>
      <point x="870" y="1048"/>
      <point x="816" y="1128"/>
      <point x="714" y="1166"/>
      <point x="642" y="1166" type="qcurve" smooth="yes"/>
      <point x="500" y="1166" type="line"/>
      <point x="500" y="0" type="line"/>
    </contour>
    <contour>
      <point x="902" y="0" type="line"/>
      <point x="538" y="684" type="line"/>
      <point x="968" y="684" type="line"/>
      <point x="1342" y="0" type="line"/>
    </contour>
  </outline>
</glyph>
<glyph name="c" format="2">
  <advance width="1235"/>
  <unicode hex="0063"/>
  <anchor x="688" y="0" name="m.uni0326"/>
  <anchor x="688" y="1118" name="m.uni030F_1"/>
  <anchor x="688" y="0" name="m.uni0327_3"/>
  <outline>
    <contour>
      <point x="640" y="-20" type="qcurve" smooth="yes"/>
      <point x="458" y="-20"/>
      <point x="199" y="125"/>
      <point x="62" y="384"/>
      <point x="62" y="556" type="qcurve" smooth="yes"/>
      <point x="62" y="728"/>
      <point x="199" y="987"/>
      <point x="458" y="1132"/>
      <point x="640" y="1132" type="qcurve" smooth="yes"/>
      <point x="756" y="1132"/>
      <point x="944" y="1072"/>
      <point x="1083" y="961"/>
      <point x="1165" y="804"/>
      <point x="1175" y="707" type="qcurve"/>
      <point x="806" y="652" type="line"/>
      <point x="799" y="696"/>
      <point x="772" y="763"/>
      <point x="732" y="809"/>
      <point x="679" y="832"/>
      <point x="646" y="832" type="qcurve" smooth="yes"/>
      <point x="593" y="832"/>
      <point x="515" y="772"/>
      <point x="472" y="650"/>
      <point x="472" y="558" type="qcurve" smooth="yes"/>
      <point x="472" y="467"/>
      <point x="515" y="343"/>
      <point x="593" y="280"/>
      <point x="646" y="280" type="qcurve" smooth="yes"/>
      <point x="679" y="280"/>
      <point x="732" y="304"/>
      <point x="773" y="351"/>
      <point x="800" y="421"/>
      <point x="806" y="466" type="qcurve"/>
      <point x="1175" y="412" type="line"/>
      <point x="1165" y="312"/>
      <point x="1083" y="153"/>
      <point x="945" y="40"/>
      <point x="756" y="-20"/>
    </contour>
  </outline>
</glyph>
<glyph name="braceleft" format="2">
  <advance width="1035"/>
  <unicode hex="007B"/>
  <outline>
    <contour>
      <point x="137" y="627" type="qcurve"/>
      <point x="137" y="825" type="line"/>
      <point x="264" y="825"/>
      <point x="363" y="926"/>
      <point x="363" y="1033" type="qcurve" smooth="yes"/>
      <point x="363" y="1161" type="line" smooth="yes"/>
      <point x="363" y="1318"/>
      <point x="461" y="1491"/>
      <point x="628" y="1565"/>
      <point x="839" y="1581"/>
      <point x="951" y="1581" type="qcurve"/>
      <point x="951" y="1289" type="line"/>
      <point x="820" y="1289"/>
      <point x="737" y="1201"/>
      <point x="737" y="1109" type="qcurve" smooth="yes"/>
      <point x="737" y="949" type="line" smooth="yes"/>
      <point x="737" y="895"/>
      <point x="693" y="781"/>
      <point x="568" y="686"/>
      <point x="331" y="627"/>
    </contour>
    <contour>
      <point x="951" y="-279" type="line"/>
      <point x="839" y="-279"/>
      <point x="628" y="-263"/>
      <point x="461" y="-189"/>
      <point x="363" y="-16"/>
      <point x="363" y="141" type="qcurve" smooth="yes"/>
      <point x="363" y="269" type="line" smooth="yes"/>
      <point x="363" y="376"/>
      <point x="264" y="477"/>
      <point x="137" y="477" type="qcurve"/>
      <point x="137" y="675" type="line"/>
      <point x="331" y="675"/>
      <point x="568" y="616"/>
      <point x="693" y="521"/>
      <point x="737" y="407"/>
      <point x="737" y="353" type="qcurve" smooth="yes"/>
      <point x="737" y="193" type="line" smooth="yes"/>
      <point x="737" y="102"/>
      <point x="820" y="13"/>
      <point x="951" y="13" type="qcurve"/>
    </contour>
    <contour>
      <point x="137" y="477" type="line"/>
      <point x="137" y="825" type="line"/>
      <point x="477" y="825" type="line"/>
      <point x="477" y="477" type="line"/>
    </contour>
  </outline>
</glyph>
<glyph name="twosuperior" format="2">
  <advance width="973"/>
  <unicode hex="00B2"/>
  <anchor x="447" y="1714" name="m.uni030F_1"/>
  <outline>
    <contour>
      <point x="110" y="886" type="line"/>
      <point x="110" y="1088" type="line"/>
      <point x="481" y="1332" type="line" smooth="yes"/>
      <point x="518" y="1356"/>
      <point x="563" y="1391"/>
      <point x="585" y="1423"/>
      <point x="585" y="1442" type="qcurve" smooth="yes"/>
      <point x="585" y="1483"/>
      <point x="517" y="1526"/>
      <point x="465" y="1526" type="qcurve" smooth="yes"/>
      <point x="414" y="1526"/>
      <point x="354" y="1493"/>
      <point x="354" y="1456" type="qcurve"/>
      <point x="84" y="1456" type="line"/>
      <point x="84" y="1590"/>
      <point x="293" y="1738"/>
      <point x="464" y="1738" type="qcurve" smooth="yes"/>
      <point x="654" y="1738"/>
      <point x="865" y="1593"/>
      <point x="865" y="1472" type="qcurve" smooth="yes"/>
      <point x="865" y="1436"/>
      <point x="847" y="1357"/>
      <point x="783" y="1271"/>
      <point x="645" y="1177"/>
      <point x="525" y="1126" type="qcurve" smooth="yes"/>
      <point x="504" y="1117" type="line"/>
      <point x="504" y="1108" type="line"/>
      <point x="879" y="1108" type="line"/>
      <point x="879" y="886" type="line"/>
    </contour>
  </outline>
</glyph>
<glyph name="threesuperior" format="2">
  <advance width="1017"/>
  <unicode hex="00B3"/>
  <anchor x="477" y="1714" name="m.uni030F_1"/>
  <outline>
    <contour>
      <point x="501" y="876" type="qcurve" smooth="yes"/>
      <point x="385" y="876"/>
      <point x="199" y="951"/>
      <point x="90" y="1080"/>
      <point x="90" y="1161" type="qcurve"/>
      <point x="381" y="1161" type="line"/>
      <point x="389" y="1131"/>
      <point x="451" y="1099"/>
      <point x="500" y="1099" type="qcurve" smooth="yes"/>
      <point x="553" y="1099"/>
      <point x="609" y="1138"/>
      <point x="609" y="1175" type="qcurve" smooth="yes"/>
      <point x="609" y="1213"/>
      <point x="549" y="1257"/>
      <point x="492" y="1257" type="qcurve" smooth="yes"/>
      <point x="358" y="1257" type="line"/>
      <point x="358" y="1419" type="line"/>
      <point x="554" y="1497" type="line"/>
      <point x="554" y="1504" type="line"/>
      <point x="142" y="1504" type="line"/>
      <point x="142" y="1728" type="line"/>
      <point x="884" y="1728" type="line"/>
      <point x="884" y="1529" type="line"/>
      <point x="517" y="1347" type="line"/>
      <point x="517" y="1375" type="line"/>
      <point x="626" y="1396"/>
      <point x="810" y="1347"/>
      <point x="922" y="1228"/>
      <point x="922" y="1141" type="qcurve" smooth="yes"/>
      <point x="922" y="1053"/>
      <point x="804" y="935"/>
      <point x="613" y="876"/>
    </contour>
  </outline>
</glyph>
<glyph name="paragraph" format="2">
  <advance width="1220"/>
  <unicode hex="00B6"/>
  <outline>
    <contour>
      <point x="1104" y="1198" type="line"/>
      <point x="654" y="1198" type="line"/>
      <point x="654" y="552" type="line"/>
      <point x="566" y="552" type="line" smooth="yes"/>
      <point x="399" y="552"/>
      <point x="169" y="674"/>
      <point x="52" y="887"/>
      <point x="52" y="1022" type="qcurve" smooth="yes"/>
      <point x="52" y="1156"/>
      <point x="169" y="1367"/>
      <point x="399" y="1490"/>
      <point x="566" y="1490" type="qcurve" smooth="yes"/>
      <point x="1104" y="1490" type="line"/>
    </contour>
    <contour>
      <point x="834" y="0" type="line"/>
      <point x="834" y="1490" type="line"/>
      <point x="1124" y="1490" type="line"/>
      <point x="1124" y="0" type="line"/>
    </contour>
  </outline>
</glyph>
<glyph name="onesuperior" format="2">
  <advance width="709"/>
  <unicode hex="00B9"/>
  <outline>
    <contour>
      <point x="320" y="886" type="line"/>
      <point x="320" y="1471" type="line"/>
      <point x="368" y="1370" type="line"/>
      <point x="292" y="1370"/>
      <point x="202" y="1370"/>
      <point x="112" y="1370" type="curve"/>
      <point x="112" y="1568" type="line"/>
      <point x="293" y="1568"/>
      <point x="403" y="1632"/>
      <point x="455" y="1729" type="curve"/>
      <point x="605" y="1729" type="line"/>
      <point x="605" y="886" type="line"/>
    </contour>
  </outline>
</glyph>
<glyph name="Thorn" format="2">
  <advance width="1428"/>
  <unicode hex="00DE"/>
  <outline>
    <contour>
      <point x="98" y="1490" type="line"/>
      <point x="504" y="1490" type="line"/>
      <point x="504" y="0" type="line"/>
      <point x="98" y="0" type="line"/>
    </contour>
    <contour>
      <point x="286" y="1240" type="line"/>
      <point x="674" y="1240" type="line" smooth="yes"/>
      <point x="868" y="1240"/>
      <point x="1136" y="1118"/>
      <point x="1274" y="905"/>
      <point x="1274" y="766" type="qcurve" smooth="yes"/>
      <point x="1274" y="626"/>
      <point x="1136" y="413"/>
      <point x="868" y="294"/>
      <point x="674" y="294" type="qcurve" smooth="yes"/>
      <point x="286" y="294" type="line"/>
      <point x="286" y="590" type="line"/>
      <point x="674" y="590" type="line"/>
      <point x="755" y="591"/>
      <point x="848" y="644"/>
      <point x="888" y="723"/>
      <point x="888" y="762" type="qcurve" smooth="yes"/>
      <point x="888" y="803"/>
      <point x="848" y="885"/>
      <point x="755" y="940"/>
      <point x="674" y="940" type="qcurve" smooth="yes"/>
      <point x="286" y="940" type="line"/>
    </contour>
  </outline>
</glyph>
<glyph name="ae" format="2">
  <advance width="1856"/>
  <unicode hex="00E6"/>
  <anchor x="902" y="1303" name="m.uni030F_1"/>
  <outline>
    <contour>
      <point x="442" y="-17" type="qcurve" smooth="yes"/>
      <point x="321" y="-17"/>
      <point x="144" y="53"/>
      <point x="49" y="198"/>
      <point x="49" y="308" type="qcurve" smooth="yes"/>
      <point x="49" y="400"/>
      <point x="112" y="529"/>
      <point x="225" y="612"/>
      <point x="374" y="656"/>
      <point x="460" y="663" type="qcurve" smooth="yes"/>
      <point x="719" y="685" type="line"/>
      <point x="719" y="765" type="line" smooth="yes"/>
      <point x="719" y="809"/>
      <point x="652" y="855"/>
      <point x="599" y="855" type="qcurve" smooth="yes"/>
      <point x="543" y="855"/>
      <point x="469" y="806"/>
      <point x="463" y="753" type="qcurve"/>
      <point x="102" y="792" type="line"/>
      <point x="108" y="855"/>
      <point x="215" y="1028"/>
      <point x="441" y="1132"/>
      <point x="614" y="1132" type="qcurve" smooth="yes"/>
      <point x="670" y="1132"/>
      <point x="764" y="1111"/>
      <point x="841" y="1073"/>
      <point x="898" y="1018"/>
      <point x="916" y="983" type="qcurve"/>
      <point x="899" y="169" type="line"/>
      <point x="876" y="169" type="line"/>
      <point x="841" y="106"/>
      <point x="708" y="23"/>
      <point x="536" y="-17"/>
    </contour>
    <contour>
      <point x="544" y="236" type="qcurve" smooth="yes"/>
      <point x="590" y="236"/>
      <point x="671" y="273"/>
      <point x="721" y="345"/>
      <point x="721" y="396" type="qcurve" smooth="yes"/>
      <point x="721" y="470" type="line"/>
      <point x="561" y="448" type="line" smooth="yes"/>
      <point x="515" y="442"/>
      <point x="456" y="408"/>
      <point x="428" y="361"/>
      <point x="428" y="332" type="qcurve" smooth="yes"/>
      <point x="428" y="285"/>
      <point x="493" y="236"/>
    </contour>
    <contour>
      <point x="1280" y="-20" type="qcurve" smooth="yes"/>
      <point x="1144" y="-20"/>
      <point x="919" y="84"/>
      <point x="867" y="195" type="qcurve"/>
      <point x="829" y="919" type="line"/>
      <point x="908" y="1037"/>
      <point x="1111" y="1132"/>
      <point x="1239" y="1132" type="qcurve" smooth="yes"/>
      <point x="1366" y="1132"/>
      <point x="1571" y="1053"/>
      <point x="1716" y="904"/>
      <point x="1795" y="692"/>
      <point x="1795" y="559" type="qcurve" smooth="yes"/>
      <point x="1795" y="465" type="line"/>
      <point x="835" y="465" type="line"/>
      <point x="835" y="687" type="line"/>
      <point x="1425" y="687" type="line"/>
      <point x="1424" y="735"/>
      <point x="1377" y="808"/>
      <point x="1297" y="849"/>
      <point x="1248" y="849" type="qcurve" smooth="yes"/>
      <point x="1199" y="849"/>
      <point x="1118" y="808"/>
      <point x="1069" y="735"/>
      <point x="1068" y="687" type="qcurve"/>
      <point x="1068" y="448" type="line" smooth="yes"/>
      <point x="1068" y="394"/>
      <point x="1113" y="310"/>
      <point x="1197" y="262"/>
      <point x="1257" y="262" type="qcurve" smooth="yes"/>
      <point x="1298" y="262"/>
      <point x="1367" y="285"/>
      <point x="1417" y="329"/>
      <point x="1428" y="361" type="qcurve"/>
      <point x="1782" y="309" type="line"/>
      <point x="1769" y="244"/>
      <point x="1635" y="73"/>
      <point x="1416" y="-20"/>
    </contour>
  </outline>
</glyph>
<glyph name="divide" format="2">
  <advance width="1420"/>
  <unicode hex="00F7"/>
  <outline>
    <contour>
      <point x="1248" y="756" type="line"/>
      <point x="1248" y="454" type="line"/>
      <point x="172" y="454" type="line"/>
      <point x="172" y="756" type="line"/>
    </contour>
    <contour>
      <point x="710" y="-24" type="qcurve"/>
      <point x="624" y="-23"/>
      <point x="504" y="97"/>
      <point x="504" y="184" type="qcurve" smooth="yes"/>
      <point x="504" y="267"/>
      <point x="624" y="386"/>
      <point x="710" y="386" type="qcurve" smooth="yes"/>
      <point x="794" y="386"/>
      <point x="914" y="267"/>
      <point x="914" y="184" type="qcurve" smooth="yes"/>
      <point x="914" y="97"/>
      <point x="794" y="-23"/>
    </contour>
    <contour>
      <point x="710" y="824" type="qcurve"/>
      <point x="625" y="823"/>
      <point x="504" y="945"/>
      <point x="504" y="1030" type="qcurve" smooth="yes"/>
      <point x="504" y="1115"/>
      <point x="625" y="1234"/>
      <point x="710" y="1234" type="qcurve" smooth="yes"/>
      <point x="795" y="1234"/>
      <point x="914" y="1115"/>
      <point x="914" y="1030" type="qcurve" smooth="yes"/>
      <point x="914" y="945"/>
      <point x="795" y="823"/>
    </contour>
  </outline>
</glyph>
<glyph name="Hbar" format="2">
  <advance width="1706"/>
  <unicode hex="0126"/>
  <anchor x="933" y="0" name="m.uni0326"/>
  <anchor x="933" y="1490" name="m.uni030F_1"/>
  <anchor x="493" y="0" name="m.uni0327_3"/>
  <outline>
    <contour>
      <point x="1650" y="1268" type="line"/>
      <point x="1650" y="1076" type="line"/>
      <point x="56" y="1076" type="line"/>
      <point x="56" y="1268" type="line"/>
    </contour>
    <contour>
      <point x="180" y="0" type="line"/>
      <point x="180" y="1490" type="line"/>
      <point x="584" y="1490" type="line"/>
      <point x="584" y="924" type="line"/>
      <point x="1120" y="924" type="line"/>
      <point x="1120" y="1490" type="line"/>
      <point x="1524" y="1490" type="line"/>
      <point x="1524" y="0" type="line"/>
      <point x="1120" y="0" type="line"/>
      <point x="1120" y="598" type="line"/>
      <point x="584" y="598" type="line"/>
      <point x="584" y="0" type="line"/>
    </contour>
  </outline>
</glyph>
<glyph name="Schwa" format="2">
  <advance width="1545"/>
  <unicode hex="018F"/>
  <outline>
    <contour>
      <point x="753" y="-20" type="qcurve" smooth="yes"/>
      <point x="607" y="-20"/>
      <point x="359" y="67"/>
      <point x="176" y="233"/>
      <point x="75" y="473"/>
      <point x="75" y="626" type="qcurve" smooth="yes"/>
      <point x="75" y="832" type="line"/>
      <point x="1149" y="832" type="line"/>
      <point x="1149" y="544" type="line"/>
      <point x="395" y="544" type="line"/>
      <point x="465" y="552" type="line"/>
      <point x="465" y="485"/>
      <point x="530" y="386"/>
      <point x="657" y="332"/>
      <point x="749" y="332" type="qcurve" smooth="yes"/>
      <point x="854" y="332"/>
      <point x="992" y="431"/>
      <point x="1059" y="617"/>
      <point x="1059" y="748" type="qcurve" smooth="yes"/>
      <point x="1059" y="877"/>
      <point x="988" y="1061"/>
      <point x="849" y="1158"/>
      <point x="747" y="1158" type="qcurve" smooth="yes"/>
      <point x="699" y="1158"/>
      <point x="618" y="1137"/>
      <point x="554" y="1096"/>
      <point x="510" y="1036"/>
      <point x="501" y="998" type="qcurve"/>
      <point x="93" y="998" type="line"/>
      <point x="105" y="1110"/>
      <point x="212" y="1297"/>
      <point x="388" y="1435"/>
      <point x="615" y="1510"/>
      <point x="747" y="1510" type="qcurve" smooth="yes"/>
      <point x="948" y="1510"/>
      <point x="1279" y="1331"/>
      <point x="1475" y="988"/>
      <point x="1475" y="742" type="qcurve" smooth="yes"/>
      <point x="1475" y="507"/>
      <point x="1295" y="165"/>
      <point x="971" y="-20"/>
    </contour>
  </outline>
</glyph>
<glyph name="lambdastroke" format="2">
  <advance width="1470"/>
  <unicode hex="019B"/>
  <outline>
    <contour>
      <point x="251" y="1020" type="line"/>
      <point x="251" y="1142" type="line"/>
      <point x="971" y="1354" type="line"/>
      <point x="971" y="1238" type="line"/>
    </contour>
    <contour>
      <point x="12" y="0" type="line"/>
      <point x="426" y="1119" type="line"/>
      <point x="426" y="1137" type="line" smooth="yes"/>
      <point x="426" y="1175"/>
      <point x="390" y="1211"/>
      <point x="310" y="1214"/>
      <point x="243" y="1199" type="qcurve" smooth="yes"/>
      <point x="202" y="1190" type="line"/>
      <point x="114" y="1476" type="line"/>
      <point x="161" y="1494"/>
      <point x="307" y="1515"/>
      <point x="377" y="1515" type="qcurve" smooth="yes"/>
      <point x="492" y="1515"/>
      <point x="667" y="1450"/>
      <point x="796" y="1307"/>
      <point x="840" y="1190" type="qcurve" smooth="yes"/>
      <point x="1153" y="364" type="line" smooth="yes"/>
      <point x="1169" y="323"/>
      <point x="1219" y="280"/>
      <point x="1286" y="270"/>
      <point x="1325" y="278" type="qcurve" smooth="yes"/>
      <point x="1377" y="289" type="line"/>
      <point x="1465" y="14" type="line"/>
      <point x="1418" y="-4"/>
      <point x="1276" y="-28"/>
      <point x="1207" y="-28" type="qcurve" smooth="yes"/>
      <point x="1103" y="-28"/>
      <point x="938" y="38"/>
      <point x="817" y="182"/>
      <point x="780" y="300" type="qcurve" smooth="yes"/>
      <point x="714" y="510" type="line" smooth="yes"/>
      <point x="678" y="624"/>
      <point x="625" y="858"/>
      <point x="599" y="998" type="qcurve"/>
      <point x="672" y="998" type="line"/>
      <point x="646" y="858"/>
      <point x="611" y="625"/>
      <point x="579" y="510" type="qcurve" smooth="yes"/>
      <point x="434" y="0" type="line"/>
    </contour>
  </outline>
</glyph>
<glyph name="Oi" format="2">
  <advance width="2010"/>
  <unicode hex="01A2"/>
  <outline>
    <contour>
      <point x="1378" y="966" type="line"/>
      <point x="1378" y="178" type="line"/>
      <point x="1338" y="137"/>
      <point x="1172" y="45"/>
      <point x="935" y="-20"/>
      <point x="786" y="-20" type="qcurve" smooth="yes"/>
      <point x="621" y="-20"/>
      <point x="363" y="75"/>
      <point x="184" y="258"/>
      <point x="90" y="522"/>
      <point x="90" y="690" type="qcurve" smooth="yes"/>
      <point x="90" y="774" type="line"/>
      <point x="488" y="776" type="line"/>
      <point x="488" y="690" type="line"/>
      <point x="489" y="571"/>
      <point x="544" y="390"/>
      <point x="679" y="290"/>
      <point x="800" y="290" type="qcurve" smooth="yes"/>
      <point x="871" y="290"/>
      <point x="974" y="323"/>
      <point x="1000" y="340" type="qcurve"/>
      <point x="1000" y="966" type="line"/>
    </contour>
    <contour>
      <point x="1378" y="1312" type="qcurve"/>
      <point x="1378" y="536" type="line"/>
      <point x="1000" y="530" type="line"/>
      <point x="1000" y="1152" type="line"/>
      <point x="965" y="1178"/>
      <point x="857" y="1198"/>
      <point x="802" y="1198" type="qcurve" smooth="yes"/>
      <point x="674" y="1198"/>
      <point x="538" y="1104"/>
      <point x="488" y="927"/>
      <point x="488" y="800" type="qcurve" smooth="yes"/>
      <point x="488" y="696" type="line"/>
      <point x="90" y="698" type="line"/>
      <point x="90" y="800" type="line" smooth="yes"/>
      <point x="90" y="969"/>
      <point x="184" y="1233"/>
      <point x="363" y="1415"/>
      <point x="621" y="1510"/>
      <point x="786" y="1510" type="qcurve" smooth="yes"/>
      <point x="936" y="1510"/>
      <point x="1173" y="1446"/>
      <point x="1338" y="1354"/>
    </contour>
    <contour>
      <point x="1914" y="1490" type="line"/>
      <point x="1914" y="-418" type="line"/>
      <point x="1542" y="-418" type="line"/>
      <point x="1542" y="1016" type="line"/>
      <point x="1164" y="832" type="line"/>
      <point x="1164" y="1266" type="line"/>
      <point x="1634" y="1490" type="line"/>
    </contour>
  </outline>
</glyph>
<glyph name="oi" format="2">
  <advance width="1676"/>
  <unicode hex="01A3"/>
  <outline>
    <contour>
      <point x="616" y="282" type="qcurve" smooth="yes"/>
      <point x="660" y="282"/>
      <point x="724" y="305"/>
      <point x="742" y="328" type="qcurve"/>
      <point x="742" y="686" type="line"/>
      <point x="1118" y="686" type="line"/>
      <point x="1118" y="248" type="line"/>
      <point x="1081" y="177"/>
      <point x="963" y="54"/>
      <point x="773" y="-20"/>
      <point x="626" y="-20" type="qcurve" smooth="yes"/>
      <point x="447" y="-20"/>
      <point x="208" y="121"/>
      <point x="90" y="371"/>
      <point x="90" y="532" type="qcurve" smooth="yes"/>
      <point x="90" y="550" type="line" smooth="yes"/>
      <point x="90" y="725"/>
      <point x="208" y="986"/>
      <point x="447" y="1132"/>
      <point x="626" y="1132" type="qcurve" smooth="yes"/>
      <point x="758" y="1132"/>
      <point x="959" y="1028"/>
      <point x="1091" y="884"/>
      <point x="1118" y="824" type="qcurve"/>
      <point x="1118" y="602" type="line"/>
      <point x="742" y="638" type="line"/>
      <point x="742" y="766" type="line"/>
      <point x="722" y="798"/>
      <point x="660" y="832"/>
      <point x="610" y="832" type="qcurve" smooth="yes"/>
      <point x="542" y="832"/>
      <point x="479" y="758"/>
      <point x="462" y="630"/>
      <point x="462" y="550" type="qcurve" smooth="yes"/>
      <point x="462" y="532" type="line" smooth="yes"/>
      <point x="462" y="474"/>
      <point x="475" y="359"/>
      <point x="539" y="282"/>
    </contour>
    <contour>
      <point x="1588" y="1118" type="line"/>
      <point x="1588" y="-418" type="line"/>
      <point x="1210" y="-418" type="line"/>
      <point x="1210" y="718" type="line"/>
      <point x="958" y="646" type="line"/>
      <point x="958" y="962" type="line"/>
      <point x="1344" y="1118" type="line"/>
    </contour>
  </outline>
</glyph>
<glyph name="tonetwo" format="2">
  <advance width="1204"/>
  <unicode hex="01A8"/>
  <anchor x="599" y="0" name="m.uniF6C3"/>
  <anchor x="599" y="1303" name="m.uni030F_1"/>
  <outline>
    <contour>
      <point x="86" y="805" type="line"/>
      <point x="110" y="946"/>
      <point x="369" y="1132"/>
      <point x="611" y="1132" type="qcurve" smooth="yes"/>
      <point x="771" y="1132"/>
      <point x="1002" y="1047"/>
      <point x="1127" y="884"/>
      <point x="1126" y="768" type="qcurve" smooth="yes"/>
      <point x="1127" y="636"/>
      <point x="956" y="469"/>
      <point x="785" y="439" type="qcurve" smooth="yes"/>
      <point x="588" y="404" type="line" smooth="yes"/>
      <point x="462" y="381"/>
      <point x="460" y="323" type="qcurve"/>
      <point x="461" y="288"/>
      <point x="532" y="250"/>
      <point x="588" y="250" type="qcurve" smooth="yes"/>
      <point x="656" y="250"/>
      <point x="745" y="308"/>
      <point x="754" y="362" type="qcurve"/>
      <point x="1143" y="304" type="line"/>
      <point x="1111" y="171"/>
      <point x="847" y="-20"/>
      <point x="591" y="-20" type="qcurve" smooth="yes"/>
      <point x="436" y="-20"/>
      <point x="193" y="75"/>
      <point x="53" y="250"/>
      <point x="52" y="369" type="qcurve"/>
      <point x="54" y="493"/>
      <point x="222" y="641"/>
      <point x="393" y="672" type="qcurve" smooth="yes"/>
      <point x="620" y="713" type="line" smooth="yes"/>
      <point x="684" y="724"/>
      <point x="729" y="767"/>
      <point x="727" y="791" type="qcurve"/>
      <point x="729" y="826"/>
      <point x="654" y="864"/>
      <point x="602" y="864" type="qcurve" smooth="yes"/>
      <point x="543" y="864"/>
      <point x="455" y="805"/>
      <point x="451" y="753" type="qcurve"/>
    </contour>
  </outline>
</glyph>
<glyph name="Upsilonafrican" format="2">
  <advance width="1618"/>
  <unicode hex="01B1"/>
  <outline>
    <contour>
      <point x="72" y="666" type="qcurve"/>
      <point x="73" y="836"/>
      <point x="211" y="1078"/>
      <point x="328" y="1152" type="qcurve"/>
      <point x="328" y="1164" type="line"/>
      <point x="72" y="1164" type="line"/>
      <point x="72" y="1490" type="line"/>
      <point x="704" y="1490" type="line"/>
      <point x="704" y="1082" type="line"/>
      <point x="637" y="1056"/>
      <point x="539" y="945"/>
      <point x="486" y="794"/>
      <point x="486" y="706" type="qcurve" smooth="yes"/>
      <point x="486" y="598"/>
      <point x="569" y="430"/>
      <point x="714" y="334"/>
      <point x="808" y="334" type="qcurve" smooth="yes"/>
      <point x="903" y="334"/>
      <point x="1049" y="430"/>
      <point x="1132" y="598"/>
      <point x="1132" y="706" type="qcurve" smooth="yes"/>
      <point x="1132" y="794"/>
      <point x="1078" y="945"/>
      <point x="981" y="1056"/>
      <point x="914" y="1082" type="qcurve"/>
      <point x="914" y="1490" type="line"/>
      <point x="1544" y="1490" type="line"/>
      <point x="1544" y="1164" type="line"/>
      <point x="1288" y="1164" type="line"/>
      <point x="1288" y="1152" type="line"/>
      <point x="1407" y="1078"/>
      <point x="1544" y="836"/>
      <point x="1544" y="666" type="qcurve" smooth="yes"/>
      <point x="1544" y="466"/>
      <point x="1356" y="156"/>
      <point x="1024" y="-20"/>
      <point x="808" y="-20" type="qcurve" smooth="yes"/>
      <point x="647" y="-20"/>
      <point x="378" y="81"/>
      <point x="181" y="265"/>
      <point x="72" y="516"/>
    </contour>
  </outline>
</glyph>
<glyph name="Ezhreversed" format="2">
  <advance width="1414"/>
  <unicode hex="01B8"/>
  <anchor x="737" y="1490" name="m.uni030F_1"/>
  <outline>
    <contour>
      <point x="1358" y="136" type="line"/>
      <point x="1355" y="-31"/>
      <point x="1186" y="-293"/>
      <point x="894" y="-442"/>
      <point x="708" y="-442" type="qcurve" smooth="yes"/>
      <point x="565" y="-442"/>
      <point x="324" y="-344"/>
      <point x="146" y="-166"/>
      <point x="48" y="77"/>
      <point x="48" y="222" type="qcurve" smooth="yes"/>
      <point x="48" y="378"/>
      <point x="171" y="623"/>
      <point x="394" y="776"/>
      <point x="544" y="792" type="qcurve"/>
      <point x="544" y="806" type="line"/>
      <point x="86" y="1198" type="line"/>
      <point x="86" y="1490" type="line"/>
      <point x="1276" y="1490" type="line"/>
      <point x="1276" y="1158" type="line"/>
      <point x="572" y="1158" type="line"/>
      <point x="572" y="1146" type="line"/>
      <point x="932" y="832" type="line"/>
      <point x="932" y="552" type="line"/>
      <point x="738" y="552" type="line"/>
      <point x="662" y="553"/>
      <point x="542" y="471"/>
      <point x="474" y="320"/>
      <point x="474" y="214" type="qcurve" smooth="yes"/>
      <point x="474" y="120"/>
      <point x="530" y="-25"/>
      <point x="637" y="-108"/>
      <point x="714" y="-108" type="qcurve" smooth="yes"/>
      <point x="781" y="-108"/>
      <point x="885" y="-46"/>
      <point x="948" y="64"/>
      <point x="950" y="136" type="qcurve"/>
    </contour>
  </outline>
</glyph>
<glyph name="ncurl" format="2">
  <advance width="1650"/>
  <unicode hex="0235"/>
  <anchor x="736" y="0" name="m.uni0326"/>
  <anchor x="736" y="1118" name="m.uni030F_1"/>
  <outline>
    <contour>
      <point x="1302" y="-418" type="qcurve" smooth="yes"/>
      <point x="1138" y="-418"/>
      <point x="927" y="-331"/>
      <point x="826" y="-151"/>
      <point x="826" y="-12" type="qcurve" smooth="yes"/>
      <point x="826" y="192" type="line"/>
      <point x="1228" y="192" type="line"/>
      <point x="1228" y="-122" type="line" smooth="yes"/>
      <point x="1228" y="-162"/>
      <point x="1276" y="-202"/>
      <point x="1314" y="-202" type="qcurve" smooth="yes"/>
      <point x="1347" y="-202"/>
      <point x="1392" y="-172"/>
      <point x="1392" y="-144" type="qcurve" smooth="yes"/>
      <point x="1392" y="-115"/>
      <point x="1344" y="-78"/>
      <point x="1294" y="-78" type="qcurve" smooth="yes"/>
      <point x="1265" y="-78"/>
      <point x="1198" y="-98"/>
      <point x="1096" y="-156"/>
      <point x="1014" y="-212" type="qcurve" smooth="yes"/>
      <point x="696" y="-430" type="line"/>
      <point x="530" y="-208" type="line"/>
      <point x="866" y="22" type="line" smooth="yes"/>
      <point x="944" y="75"/>
      <point x="1152" y="162"/>
      <point x="1276" y="162" type="qcurve" smooth="yes"/>
      <point x="1485" y="162"/>
      <point x="1718" y="-24"/>
      <point x="1718" y="-162" type="qcurve" smooth="yes"/>
      <point x="1718" y="-288"/>
      <point x="1507" y="-418"/>
    </contour>
    <contour>
      <point x="504" y="628" type="qcurve" smooth="yes"/>
      <point x="504" y="0" type="line"/>
      <point x="102" y="0" type="line"/>
      <point x="102" y="1118" type="line"/>
      <point x="479" y="1118" type="line"/>
      <point x="487" y="832" type="line"/>
      <point x="475" y="832" type="line"/>
      <point x="513" y="959"/>
      <point x="684" y="1132"/>
      <point x="838" y="1132" type="qcurve" smooth="yes"/>
      <point x="957" y="1132"/>
      <point x="1132" y="1024"/>
      <point x="1228" y="834"/>
      <point x="1228" y="712" type="qcurve" smooth="yes"/>
      <point x="1228" y="0" type="line"/>
      <point x="826" y="0" type="line"/>
      <point x="826" y="628" type="line" smooth="yes"/>
      <point x="826" y="711"/>
      <point x="742" y="806"/>
      <point x="666" y="806" type="qcurve" smooth="yes"/>
      <point x="617" y="806"/>
      <point x="544" y="763"/>
      <point x="504" y="684"/>
    </contour>
  </outline>
</glyph>
<glyph name="Glottalstop" format="2">
  <advance width="1228"/>
  <unicode hex="0241"/>
  <outline>
    <contour>
      <point x="448" y="552" type="line"/>
      <point x="600" y="552" type="line"/>
      <point x="662" y="553"/>
      <point x="725" y="609"/>
      <point x="748" y="714"/>
      <point x="748" y="788" type="qcurve" smooth="yes"/>
      <point x="748" y="952" type="line" smooth="yes"/>
      <point x="748" y="996"/>
      <point x="735" y="1108"/>
      <point x="673" y="1192"/>
      <point x="600" y="1192" type="qcurve" smooth="yes"/>
      <point x="522" y="1192"/>
      <point x="453" y="1103"/>
      <point x="456" y="1044" type="qcurve"/>
      <point x="82" y="1044" type="line"/>
      <point x="80" y="1190"/>
      <point x="216" y="1398"/>
      <point x="449" y="1510"/>
      <point x="590" y="1510" type="qcurve" smooth="yes"/>
      <point x="764" y="1510"/>
      <point x="1013" y="1366"/>
      <point x="1146" y="1115"/>
      <point x="1146" y="952" type="qcurve" smooth="yes"/>
      <point x="1146" y="788" type="line" smooth="yes"/>
      <point x="1146" y="628"/>
      <point x="1014" y="380"/>
      <point x="765" y="238"/>
      <point x="588" y="238" type="qcurve" smooth="yes"/>
      <point x="448" y="238" type="line"/>
    </contour>
    <contour>
      <point x="812" y="552" type="line"/>
      <point x="812" y="0" type="line"/>
      <point x="418" y="0" type="line"/>
      <point x="418" y="552" type="line"/>
    </contour>
  </outline>
</glyph>
<glyph name="obarred" format="2">
  <advance width="1280"/>
  <unicode hex="0275"/>
  <anchor x="700" y="0" name="m.uni0326"/>
  <anchor x="700" y="1118" name="m.uni030F_1"/>
  <anchor x="1364" y="558" name="m.uni0328_4"/>
  <outline>
    <contour>
      <point x="982" y="638" type="line"/>
      <point x="982" y="480" type="line"/>
      <point x="298" y="480" type="line"/>
      <point x="298" y="638" type="line"/>
    </contour>
    <contour>
      <point x="641" y="-20" type="qcurve" smooth="yes"/>
      <point x="459" y="-20"/>
      <point x="199" y="125"/>
      <point x="62" y="384"/>
      <point x="62" y="556" type="qcurve" smooth="yes"/>
      <point x="62" y="728"/>
      <point x="199" y="987"/>
      <point x="459" y="1132"/>
      <point x="641" y="1132" type="qcurve" smooth="yes"/>
      <point x="823" y="1132"/>
      <point x="1081" y="987"/>
      <point x="1218" y="728"/>
      <point x="1218" y="556" type="qcurve" smooth="yes"/>
      <point x="1218" y="384"/>
      <point x="1081" y="125"/>
      <point x="823" y="-20"/>
    </contour>
    <contour>
      <point x="641" y="280" type="qcurve" smooth="yes"/>
      <point x="693" y="280"/>
      <point x="768" y="346"/>
      <point x="808" y="471"/>
      <point x="808" y="558" type="qcurve" smooth="yes"/>
      <point x="808" y="646"/>
      <point x="768" y="768"/>
      <point x="693" y="832"/>
      <point x="641" y="832" type="qcurve" smooth="yes"/>
      <point x="588" y="832"/>
      <point x="512" y="768"/>
      <point x="472" y="646"/>
      <point x="472" y="558" type="qcurve" smooth="yes"/>
      <point x="472" y="471"/>
      <point x="512" y="346"/>
      <point x="588" y="280"/>
    </contour>
  </outline>
</glyph>
<glyph name="hookabovecomb" format="2">
  <unicode hex="0309"/>
  <anchor x="372" y="1118" name="_m.uni030F_1"/>
  <anchor x="372" y="1118" name="_t.uni030F"/>
  <outline>
    <contour>
      <point x="413" y="1256" type="line"/>
      <point x="199" y="1256" type="line"/>
      <point x="281" y="1392" type="line" smooth="yes"/>
      <point x="283" y="1395"/>
      <point x="281" y="1399"/>
      <point x="277" y="1399" type="qcurve" smooth="yes"/>
      <point x="100" y="1399" type="line"/>
      <point x="100" y="1582" type="line"/>
      <point x="277" y="1582" type="line" smooth="yes"/>
      <point x="380" y="1582"/>
      <point x="492" y="1529"/>
      <point x="528" y="1447"/>
      <point x="504" y="1357"/>
      <point x="471" y="1320" type="qcurve" smooth="yes"/>
    </contour>
  </outline>
</glyph>
<glyph name="horncomb" format="2">
  <unicode hex="031B"/>
  <outline>
    <contour>
      <point x="-180" y="1618" type="line"/>
      <point x="-180" y="1492"/>
      <point x="-190" y="1318"/>
      <point x="-227" y="1188"/>
      <point x="-304" y="1075"/>
      <point x="-372" y="1012" type="qcurve"/>
      <point x="-546" y="1096" type="line"/>
      <point x="-526" y="1154"/>
      <point x="-498" y="1246"/>
      <point x="-481" y="1350"/>
      <point x="-474" y="1501"/>
      <point x="-474" y="1618" type="qcurve"/>
    </contour>
  </outline>
</glyph>
<glyph name="icomb" format="2">
  <unicode hex="0365"/>
  <outline>
    <contour>
      <point x="-588" y="1754" type="line"/>
      <point x="-588" y="1202" type="line"/>
      <point x="-768" y="1202" type="line"/>
      <point x="-768" y="1754" type="line"/>
    </contour>
    <contour>
      <point x="-780" y="1900" type="qcurve"/>
      <point x="-781" y="1939"/>
      <point x="-723" y="1986"/>
      <point x="-680" y="1986" type="qcurve" smooth="yes"/>
      <point x="-636" y="1986"/>
      <point x="-579" y="1937"/>
      <point x="-578" y="1900" type="qcurve"/>
      <point x="-579" y="1860"/>
      <point x="-636" y="1810"/>
      <point x="-680" y="1810" type="qcurve" smooth="yes"/>
      <point x="-723" y="1810"/>
      <point x="-781" y="1860"/>
    </contour>
  </outline>
</glyph>
<glyph name="Sigma" format="2">
  <advance width="1428"/>
  <unicode hex="03A3"/>
  <outline>
    <contour>
      <point x="85" y="0" type="line"/>
      <point x="85" y="292" type="line"/>
      <point x="398" y="601" type="line" smooth="yes"/>
      <point x="439" y="641"/>
      <point x="570" y="749"/>
      <point x="701" y="850"/>
      <point x="741" y="878" type="qcurve"/>
      <point x="741" y="643" type="line"/>
      <point x="701" y="671"/>
      <point x="571" y="767"/>
      <point x="442" y="872"/>
      <point x="401" y="911" type="qcurve" smooth="yes"/>
      <point x="119" y="1186" type="line"/>
      <point x="119" y="1490" type="line"/>
      <point x="1325" y="1490" type="line"/>
      <point x="1325" y="1164" type="line"/>
      <point x="905" y="1164" type="line" smooth="yes"/>
      <point x="804" y="1164"/>
      <point x="579" y="1169"/>
      <point x="478" y="1172" type="qcurve"/>
      <point x="446" y="1278" type="line"/>
      <point x="490" y="1243"/>
      <point x="617" y="1151"/>
      <point x="745" y="1055"/>
      <point x="789" y="1011" type="qcurve" smooth="yes"/>
      <point x="970" y="832" type="line"/>
      <point x="970" y="688" type="line"/>
      <point x="787" y="506" type="line" smooth="yes"/>
      <point x="743" y="462"/>
      <point x="621" y="366"/>
      <point x="499" y="275"/>
      <point x="454" y="239" type="qcurve"/>
      <point x="478" y="318" type="line"/>
      <point x="579" y="321"/>
      <point x="804" y="326"/>
      <point x="905" y="326" type="qcurve" smooth="yes"/>
      <point x="1343" y="326" type="line"/>
      <point x="1343" y="0" type="line"/>
    </contour>
  </outline>
</glyph>
<glyph name="Omega" format="2">
  <advance width="1622"/>
  <unicode hex="03A9"/>
  <unicode hex="2126"/>
  <anchor x="838" y="0" name="m.uni0326"/>
  <anchor x="840" y="1490" name="m.uni030F_1"/>
  <outline>
    <contour>
      <point x="75" y="0" type="line"/>
      <point x="75" y="314" type="line"/>
      <point x="482" y="314" type="line"/>
      <point x="482" y="354" type="line"/>
      <point x="327" y="386"/>
      <point x="147" y="525"/>
      <point x="70" y="719"/>
      <point x="70" y="834" type="qcurve" smooth="yes"/>
      <point x="70" y="983"/>
      <point x="179" y="1231"/>
      <point x="378" y="1412"/>
      <point x="649" y="1510"/>
      <point x="811" y="1510" type="qcurve" smooth="yes"/>
      <point x="973" y="1510"/>
      <point x="1244" y="1412"/>
      <point x="1443" y="1231"/>
      <point x="1552" y="983"/>
      <point x="1552" y="834" type="qcurve" smooth="yes"/>
      <point x="1552" y="719"/>
      <point x="1475" y="525"/>
      <point x="1295" y="386"/>
      <point x="1140" y="354" type="qcurve"/>
      <point x="1140" y="314" type="line"/>
      <point x="1547" y="314" type="line"/>
      <point x="1547" y="0" type="line"/>
      <point x="916" y="0" type="line"/>
      <point x="916" y="472" type="line"/>
      <point x="1016" y="493"/>
      <point x="1134" y="663"/>
      <point x="1134" y="799" type="qcurve" smooth="yes"/>
      <point x="1134" y="908"/>
      <point x="1056" y="1065"/>
      <point x="913" y="1150"/>
      <point x="813" y="1150" type="qcurve" smooth="yes"/>
      <point x="713" y="1150"/>
      <point x="567" y="1065"/>
      <point x="488" y="907"/>
      <point x="488" y="799" type="qcurve" smooth="yes"/>
      <point x="488" y="663"/>
      <point x="606" y="493"/>
      <point x="706" y="472" type="qcurve"/>
      <point x="706" y="0" type="line"/>
    </contour>
  </outline>
</glyph>
<glyph name="xi" format="2">
  <advance width="1143"/>
  <unicode hex="03BE"/>
  <outline>
    <contour>
      <point x="743" y="-287" type="line"/>
      <point x="743" y="-116" type="line" smooth="yes"/>
      <point x="743" y="-63"/>
      <point x="728" y="-14"/>
      <point x="678" y="0"/>
      <point x="624" y="0" type="qcurve" smooth="yes"/>
      <point x="527" y="0" type="line" smooth="yes"/>
      <point x="304" y="0"/>
      <point x="48" y="205"/>
      <point x="48" y="383" type="qcurve" smooth="yes"/>
      <point x="48" y="492"/>
      <point x="127" y="630"/>
      <point x="261" y="708"/>
      <point x="427" y="743"/>
      <point x="603" y="751"/>
      <point x="684" y="751" type="qcurve"/>
      <point x="684" y="740" type="line"/>
      <point x="594" y="740"/>
      <point x="390" y="752"/>
      <point x="210" y="798"/>
      <point x="97" y="897"/>
      <point x="97" y="984" type="qcurve" smooth="yes"/>
      <point x="97" y="1063"/>
      <point x="207" y="1158"/>
      <point x="413" y="1212"/>
      <point x="557" y="1229" type="qcurve"/>
      <point x="557" y="1215" type="line"/>
      <point x="84" y="1194" type="line"/>
      <point x="84" y="1490" type="line"/>
      <point x="1025" y="1490" type="line"/>
      <point x="1025" y="1218" type="line"/>
      <point x="853" y="1202" type="line" smooth="yes"/>
      <point x="671" y="1185"/>
      <point x="474" y="1114"/>
      <point x="474" y="1027" type="qcurve" smooth="yes"/>
      <point x="474" y="969"/>
      <point x="574" y="894"/>
      <point x="695" y="894" type="qcurve" smooth="yes"/>
      <point x="953" y="894" type="line"/>
      <point x="953" y="598" type="line"/>
      <point x="651" y="598" type="line" smooth="yes"/>
      <point x="539" y="598"/>
      <point x="423" y="524"/>
      <point x="423" y="442" type="qcurve" smooth="yes"/>
      <point x="423" y="368"/>
      <point x="521" y="304"/>
      <point x="621" y="304" type="qcurve" smooth="yes"/>
      <point x="670" y="304" type="line" smooth="yes"/>
      <point x="861" y="304"/>
      <point x="1058" y="147"/>
      <point x="1058" y="-54" type="qcurve" smooth="yes"/>
      <point x="1058" y="-287" type="line"/>
    </contour>
  </outline>
</glyph>
<glyph name="Becyr" format="2">
  <advance width="1326"/>
  <unicode hex="0411"/>
  <outline>
    <contour>
      <point x="96" y="0" type="line"/>
      <point x="96" y="1490" type="line"/>
      <point x="1152" y="1490" type="line"/>
      <point x="1152" y="1170" type="line"/>
      <point x="500" y="1170" type="line"/>
      <point x="500" y="894" type="line"/>
      <point x="798" y="894" type="line" smooth="yes"/>
      <point x="946" y="894"/>
      <point x="1161" y="799"/>
      <point x="1278" y="611"/>
      <point x="1278" y="471" type="qcurve" smooth="yes"/>
      <point x="1278" y="327"/>
      <point x="1161" y="115"/>
      <point x="946" y="0"/>
      <point x="798" y="0" type="qcurve" smooth="yes"/>
    </contour>
    <contour>
      <point x="500" y="304" type="line"/>
      <point x="720" y="304" type="line" smooth="yes"/>
      <point x="796" y="304"/>
      <point x="892" y="396"/>
      <point x="892" y="463" type="qcurve" smooth="yes"/>
      <point x="892" y="530"/>
      <point x="796" y="622"/>
      <point x="720" y="622" type="qcurve" smooth="yes"/>
      <point x="500" y="622" type="line"/>
    </contour>
  </outline>
</glyph>
<glyph name="Ucyr" format="2">
  <advance width="1537"/>
  <unicode hex="0423"/>
  <anchor x="840" y="1540" name="m.uni030F_1"/>
  <outline>
    <contour>
      <point x="278" y="0" type="line"/>
      <point x="278" y="352" type="line"/>
      <point x="417" y="352" type="line" smooth="yes"/>
      <point x="497" y="352"/>
      <point x="569" y="390"/>
      <point x="576" y="431" type="qcurve" smooth="yes"/>
      <point x="583" y="473" type="line"/>
      <point x="46" y="1490" type="line"/>
      <point x="525" y="1490" type="line"/>
      <point x="666" y="1184" type="line" smooth="yes"/>
      <point x="724" y="1058"/>
      <point x="790" y="817"/>
      <point x="823" y="614"/>
      <point x="831" y="544" type="qcurve"/>
      <point x="714" y="544" type="line"/>
      <point x="737" y="648"/>
      <point x="823" y="989"/>
      <point x="902" y="1184" type="qcurve" smooth="yes"/>
      <point x="1026" y="1490" type="line"/>
      <point x="1491" y="1490" type="line"/>
      <point x="947" y="326" type="line" smooth="yes"/>
      <point x="894" y="213"/>
      <point x="760" y="68"/>
      <point x="589" y="0"/>
      <point x="481" y="0" type="qcurve" smooth="yes"/>
    </contour>
  </outline>
</glyph>
<glyph name="decyr" format="2">
  <advance width="1438"/>
  <unicode hex="0434"/>
  <outline>
    <contour>
      <point x="34" y="-332" type="line"/>
      <point x="34" y="302" type="line"/>
      <point x="116" y="302" type="line"/>
      <point x="154" y="317"/>
      <point x="199" y="431"/>
      <point x="223" y="586"/>
      <point x="234" y="744"/>
      <point x="238" y="802" type="qcurve" smooth="yes"/>
      <point x="262" y="1118" type="line"/>
      <point x="1216" y="1118" type="line"/>
      <point x="1216" y="302" type="line"/>
      <point x="1390" y="302" type="line"/>
      <point x="1390" y="-332" type="line"/>
      <point x="1012" y="-332" type="line"/>
      <point x="1012" y="0" type="line"/>
      <point x="424" y="0" type="line"/>
      <point x="424" y="-332" type="line"/>
    </contour>
    <contour>
      <point x="500" y="302" type="qcurve"/>
      <point x="844" y="302" type="line"/>
      <point x="844" y="826" type="line"/>
      <point x="594" y="826" type="line"/>
      <point x="594" y="802" type="line"/>
      <point x="585" y="621"/>
      <point x="544" y="381"/>
    </contour>
  </outline>
</glyph>
<glyph name="Yusbigiotifiedcyr" format="2">
  <advance width="2493"/>
  <unicode hex="046C"/>
  <outline>
    <contour>
      <point x="733" y="0" type="line"/>
      <point x="733" y="284" type="line" smooth="yes"/>
      <point x="733" y="442"/>
      <point x="840" y="682"/>
      <point x="1091" y="818"/>
      <point x="1307" y="818" type="qcurve" smooth="yes"/>
      <point x="1817" y="818" type="line" smooth="yes"/>
      <point x="2033" y="818"/>
      <point x="2284" y="682"/>
      <point x="2391" y="442"/>
      <point x="2391" y="284" type="qcurve" smooth="yes"/>
      <point x="2391" y="0" type="line"/>
      <point x="1991" y="0" type="line"/>
      <point x="1991" y="316" type="line" smooth="yes"/>
      <point x="1991" y="421"/>
      <point x="1893" y="532"/>
      <point x="1801" y="532" type="qcurve" smooth="yes"/>
      <point x="1323" y="532" type="line" smooth="yes"/>
      <point x="1231" y="532"/>
      <point x="1133" y="421"/>
      <point x="1133" y="316" type="qcurve" smooth="yes"/>
      <point x="1133" y="0" type="line"/>
    </contour>
    <contour>
      <point x="96" y="0" type="line"/>
      <point x="96" y="1490" type="line"/>
      <point x="500" y="1490" type="line"/>
      <point x="500" y="0" type="line"/>
    </contour>
    <contour>
      <point x="428" y="532" type="line"/>
      <point x="428" y="818" type="line"/>
      <point x="1357" y="818" type="line"/>
      <point x="1357" y="532" type="line"/>
    </contour>
    <contour>
      <point x="1382" y="0" type="line"/>
      <point x="1382" y="627" type="line"/>
      <point x="1736" y="627" type="line"/>
      <point x="1736" y="0" type="line"/>
    </contour>
    <contour>
      <point x="1410" y="512" type="line"/>
      <point x="834" y="1490" type="line"/>
      <point x="1206" y="1490" type="line"/>
      <point x="1608" y="726" type="line"/>
      <point x="1592" y="512" type="line"/>
    </contour>
    <contour>
      <point x="1520" y="512" type="line"/>
      <point x="1520" y="732" type="line"/>
      <point x="1922" y="1490" type="line"/>
      <point x="2284" y="1490" type="line"/>
      <point x="1702" y="512" type="line"/>
    </contour>
    <contour>
      <point x="1123" y="1186" type="line"/>
      <point x="1123" y="1490" type="line"/>
      <point x="2004" y="1490" type="line"/>
      <point x="2004" y="1186" type="line"/>
    </contour>
  </outline>
</glyph>
<glyph name="koppacyr" format="2">
  <advance width="1238"/>
  <unicode hex="0481"/>
  <outline>
    <contour>
      <point x="836" y="280" type="line"/>
      <point x="836" y="-346" type="line"/>
      <point x="458" y="-346" type="line"/>
      <point x="458" y="280" type="line"/>
    </contour>
    <contour>
      <point x="640" y="-20" type="line"/>
      <point x="458" y="-20"/>
      <point x="199" y="125"/>
      <point x="62" y="384"/>
      <point x="62" y="556" type="qcurve" smooth="yes"/>
      <point x="62" y="728"/>
      <point x="199" y="987"/>
      <point x="458" y="1132"/>
      <point x="640" y="1132" type="qcurve" smooth="yes"/>
      <point x="805" y="1132"/>
      <point x="1045" y="1013"/>
      <point x="1177" y="798"/>
      <point x="1178" y="652" type="qcurve"/>
      <point x="806" y="652" type="line"/>
      <point x="801" y="711"/>
      <point x="759" y="791"/>
      <point x="691" y="832"/>
      <point x="646" y="832" type="qcurve" smooth="yes"/>
      <point x="593" y="832"/>
      <point x="515" y="772"/>
      <point x="472" y="650"/>
      <point x="472" y="558" type="qcurve" smooth="yes"/>
      <point x="472" y="467"/>
      <point x="515" y="343"/>
      <point x="593" y="280"/>
      <point x="646" y="280" type="qcurve"/>
    </contour>
  </outline>
</glyph>
<glyph name="Kabashkcyr" format="2">
  <advance width="1898"/>
  <unicode hex="04A0"/>
  <anchor x="1113" y="1490" name="m.uni030F_1"/>
  <outline>
    <contour>
      <point x="635" y="1490" type="line"/>
      <point x="635" y="1164" type="line"/>
      <point x="56" y="1164" type="line"/>
      <point x="56" y="1490" type="line"/>
    </contour>
    <contour>
      <point x="439" y="0" type="line"/>
      <point x="439" y="1490" type="line"/>
      <point x="843" y="1490" type="line"/>
      <point x="843" y="922" type="line"/>
      <point x="983" y="922" type="line"/>
      <point x="1352" y="1490" type="line"/>
      <point x="1826" y="1490" type="line"/>
      <point x="1318" y="762" type="line"/>
      <point x="1852" y="0" type="line"/>
      <point x="1378" y="0" type="line"/>
      <point x="975" y="602" type="line"/>
      <point x="843" y="602" type="line"/>
      <point x="843" y="0" type="line"/>
    </contour>
  </outline>
</glyph>
<glyph name="gmod" format="2">
  <advance width="888"/>
  <unicode hex="1D4D"/>
  <outline>
    <contour>
      <point x="430" y="456" type="qcurve"/>
      <point x="267" y="457"/>
      <point x="84" y="582"/>
      <point x="64" y="670" type="qcurve"/>
      <point x="306" y="710" type="line"/>
      <point x="314" y="697"/>
      <point x="366" y="646"/>
      <point x="436" y="646" type="qcurve" smooth="yes"/>
      <point x="486" y="646"/>
      <point x="562" y="690"/>
      <point x="562" y="744" type="qcurve" smooth="yes"/>
      <point x="562" y="852" type="line"/>
      <point x="550" y="852" type="line"/>
      <point x="540" y="839"/>
      <point x="498" y="795"/>
      <point x="420" y="760"/>
      <point x="354" y="760" type="qcurve" smooth="yes"/>
      <point x="272" y="760"/>
      <point x="130" y="833"/>
      <point x="44" y="992"/>
      <point x="44" y="1120" type="qcurve" smooth="yes"/>
      <point x="44" y="1251"/>
      <point x="132" y="1418"/>
      <point x="273" y="1498"/>
      <point x="354" y="1498" type="qcurve" smooth="yes"/>
      <point x="423" y="1498"/>
      <point x="502" y="1456"/>
      <point x="541" y="1406"/>
      <point x="550" y="1394" type="qcurve"/>
      <point x="562" y="1394" type="line"/>
      <point x="562" y="1490" type="line"/>
      <point x="824" y="1490" type="line"/>
      <point x="824" y="738" type="line" smooth="yes"/>
      <point x="824" y="644"/>
      <point x="719" y="519"/>
      <point x="541" y="457"/>
    </contour>
    <contour>
      <point x="440" y="960" type="qcurve" smooth="yes"/>
      <point x="501" y="960"/>
      <point x="564" y="1044"/>
      <point x="564" y="1122" type="qcurve" smooth="yes"/>
      <point x="564" y="1202"/>
      <point x="501" y="1288"/>
      <point x="440" y="1288" type="qcurve" smooth="yes"/>
      <point x="396" y="1288"/>
      <point x="340" y="1245"/>
      <point x="314" y="1171"/>
      <point x="314" y="1122" type="qcurve" smooth="yes"/>
      <point x="314" y="1049"/>
      <point x="374" y="960"/>
    </contour>
  </outline>
</glyph>
<glyph name="Gcomb" format="2">
  <unicode hex="1DDB"/>
  <outline>
    <contour>
      <point x="-686" y="1192" type="qcurve"/>
      <point x="-814" y="1193"/>
      <point x="-976" y="1328"/>
      <point x="-978" y="1434" type="qcurve"/>
      <point x="-978" y="1560" type="line"/>
      <point x="-976" y="1667"/>
      <point x="-819" y="1800"/>
      <point x="-696" y="1800" type="qcurve" smooth="yes"/>
      <point x="-577" y="1800"/>
      <point x="-431" y="1711"/>
      <point x="-418" y="1598" type="qcurve"/>
      <point x="-606" y="1598" type="line"/>
      <point x="-613" y="1636"/>
      <point x="-657" y="1662"/>
      <point x="-696" y="1662" type="qcurve" smooth="yes"/>
      <point x="-725" y="1662"/>
      <point x="-770" y="1635"/>
      <point x="-794" y="1593"/>
      <point x="-794" y="1570" type="qcurve" smooth="yes"/>
      <point x="-794" y="1428" type="line"/>
      <point x="-793" y="1391"/>
      <point x="-733" y="1332"/>
      <point x="-686" y="1332" type="qcurve" smooth="yes"/>
      <point x="-639" y="1332"/>
      <point x="-600" y="1335"/>
      <point x="-588" y="1342" type="qcurve"/>
      <point x="-588" y="1414" type="line"/>
      <point x="-692" y="1414" type="line"/>
      <point x="-692" y="1522" type="line"/>
      <point x="-408" y="1522" type="line"/>
      <point x="-408" y="1282" type="line"/>
      <point x="-441" y="1248"/>
      <point x="-561" y="1193"/>
    </contour>
  </outline>
</glyph>
<glyph name="betalatincomb" format="2">
  <unicode hex="1DE9"/>
  <outline>
    <contour>
      <point x="-734" y="1600" type="line"/>
      <point x="-666" y="1600" type="line" smooth="yes"/>
      <point x="-547" y="1600"/>
      <point x="-410" y="1500"/>
      <point x="-410" y="1408" type="qcurve" smooth="yes"/>
      <point x="-410" y="1305"/>
      <point x="-531" y="1192"/>
      <point x="-640" y="1192" type="qcurve" smooth="yes"/>
      <point x="-697" y="1192"/>
      <point x="-817" y="1241"/>
      <point x="-899" y="1342"/>
      <point x="-898" y="1420" type="qcurve"/>
      <point x="-832" y="1408" type="line"/>
      <point x="-835" y="1373"/>
      <point x="-758" y="1336"/>
      <point x="-692" y="1336" type="qcurve" smooth="yes"/>
      <point x="-647" y="1336"/>
      <point x="-594" y="1385"/>
      <point x="-594" y="1410" type="qcurve" smooth="yes"/>
      <point x="-594" y="1466"/>
      <point x="-652" y="1506"/>
      <point x="-702" y="1506" type="qcurve" smooth="yes"/>
      <point x="-734" y="1506" type="line"/>
    </contour>
    <contour>
      <point x="-704" y="1954" type="qcurve"/>
      <point x="-587" y="1955"/>
      <point x="-442" y="1853"/>
      <point x="-442" y="1748" type="qcurve" smooth="yes"/>
      <point x="-442" y="1672"/>
      <point x="-567" y="1554"/>
      <point x="-670" y="1554" type="qcurve" smooth="yes"/>
      <point x="-734" y="1554" type="line"/>
      <point x="-734" y="1634" type="line"/>
      <point x="-706" y="1634" type="line"/>
      <point x="-670" y="1635"/>
      <point x="-628" y="1678"/>
      <point x="-628" y="1730" type="qcurve" smooth="yes"/>
      <point x="-628" y="1759"/>
      <point x="-665" y="1810"/>
      <point x="-704" y="1810" type="qcurve" smooth="yes"/>
      <point x="-741" y="1810"/>
      <point x="-786" y="1757"/>
      <point x="-786" y="1720" type="qcurve" smooth="yes"/>
      <point x="-786" y="984" type="line"/>
      <point x="-968" y="984" type="line"/>
      <point x="-968" y="1720" type="line" smooth="yes"/>
      <point x="-968" y="1787"/>
      <point x="-900" y="1893"/>
      <point x="-780" y="1955"/>
    </contour>
  </outline>
</glyph>
<glyph name="ldoublemiddletildecomb" format="2">
  <unicode hex="1DEC"/>
  <outline>
    <contour>
      <point x="-558" y="1766" type="qcurve"/>
      <point x="-460" y="1736" type="line"/>
      <point x="-461" y="1691"/>
      <point x="-521" y="1618"/>
      <point x="-570" y="1618" type="qcurve" smooth="yes"/>
      <point x="-607" y="1618"/>
      <point x="-675" y="1638"/>
      <point x="-738" y="1658"/>
      <point x="-768" y="1658" type="qcurve" smooth="yes"/>
      <point x="-784" y="1658"/>
      <point x="-806" y="1625"/>
      <point x="-806" y="1602" type="qcurve"/>
      <point x="-908" y="1632" type="line"/>
      <point x="-909" y="1678"/>
      <point x="-846" y="1752"/>
      <point x="-794" y="1752" type="qcurve" smooth="yes"/>
      <point x="-765" y="1752"/>
      <point x="-697" y="1731"/>
      <point x="-628" y="1710"/>
      <point x="-600" y="1710" type="qcurve" smooth="yes"/>
      <point x="-583" y="1710"/>
      <point x="-559" y="1744"/>
    </contour>
    <contour>
      <point x="-558" y="1602" type="qcurve"/>
      <point x="-460" y="1570" type="line"/>
      <point x="-461" y="1525"/>
      <point x="-523" y="1452"/>
      <point x="-570" y="1452" type="qcurve" smooth="yes"/>
      <point x="-607" y="1452"/>
      <point x="-675" y="1474"/>
      <point x="-738" y="1496"/>
      <point x="-768" y="1496" type="qcurve" smooth="yes"/>
      <point x="-784" y="1496"/>
      <point x="-806" y="1459"/>
      <point x="-806" y="1438" type="qcurve"/>
      <point x="-908" y="1466" type="line"/>
      <point x="-909" y="1514"/>
      <point x="-846" y="1586"/>
      <point x="-794" y="1586" type="qcurve" smooth="yes"/>
      <point x="-765" y="1586"/>
      <point x="-697" y="1567"/>
      <point x="-628" y="1548"/>
      <point x="-600" y="1548" type="qcurve" smooth="yes"/>
      <point x="-585" y="1548"/>
      <point x="-559" y="1579"/>
    </contour>
    <contour>
      <point x="-774" y="1990" type="line"/>
      <point x="-590" y="1990" type="line"/>
      <point x="-590" y="1202" type="line"/>
      <point x="-774" y="1202" type="line"/>
    </contour>
  </outline>
</glyph>
<glyph name="eshcomb" format="2">
  <unicode hex="1DEF"/>
  <outline>
    <contour>
      <point x="-588" y="1202" type="line"/>
      <point x="-770" y="1202" type="line"/>
      <point x="-770" y="1812" type="line"/>
      <point x="-771" y="1906"/>
      <point x="-652" y="2008"/>
      <point x="-546" y="2008" type="qcurve" smooth="yes"/>
      <point x="-523" y="2008"/>
      <point x="-479" y="2000"/>
      <point x="-466" y="1998" type="qcurve"/>
      <point x="-460" y="1858" type="line"/>
      <point x="-468" y="1863"/>
      <point x="-491" y="1864"/>
      <point x="-506" y="1864" type="qcurve" smooth="yes"/>
      <point x="-547" y="1864"/>
      <point x="-588" y="1834"/>
      <point x="-588" y="1812" type="qcurve" smooth="yes"/>
    </contour>
    <contour>
      <point x="-770" y="1754" type="line"/>
      <point x="-588" y="1754" type="line"/>
      <point x="-588" y="1146" type="line" smooth="yes"/>
      <point x="-588" y="1052"/>
      <point x="-704" y="948"/>
      <point x="-808" y="948" type="qcurve" smooth="yes"/>
      <point x="-833" y="948"/>
      <point x="-876" y="956"/>
      <point x="-896" y="960" type="qcurve"/>
      <point x="-898" y="1096" type="line"/>
      <point x="-890" y="1092"/>
      <point x="-868" y="1090"/>
      <point x="-852" y="1090" type="qcurve" smooth="yes"/>
      <point x="-811" y="1090"/>
      <point x="-770" y="1122"/>
      <point x="-770" y="1146" type="qcurve" smooth="yes"/>
    </contour>
  </outline>
</glyph>
<glyph name="almostequaltobelowcomb" format="2">
  <unicode hex="1DFD"/>
  <outline>
    <contour>
      <point x="-864" y="-295" type="qcurve"/>
      <point x="-1070" y="-284" type="line"/>
      <point x="-1070" y="-228"/>
      <point x="-1008" y="-124"/>
      <point x="-898" y="-56"/>
      <point x="-826" y="-56" type="qcurve" smooth="yes"/>
      <point x="-772" y="-56"/>
      <point x="-676" y="-89"/>
      <point x="-583" y="-122"/>
      <point x="-532" y="-122" type="qcurve" smooth="yes"/>
      <point x="-501" y="-122"/>
      <point x="-454" y="-91"/>
      <point x="-454" y="-53" type="qcurve"/>
      <point x="-246" y="-64" type="line"/>
      <point x="-246" y="-122"/>
      <point x="-310" y="-226"/>
      <point x="-421" y="-291"/>
      <point x="-494" y="-291" type="qcurve" smooth="yes"/>
      <point x="-558" y="-291"/>
      <point x="-649" y="-258"/>
      <point x="-734" y="-226"/>
      <point x="-788" y="-226" type="qcurve" smooth="yes"/>
      <point x="-819" y="-226"/>
      <point x="-863" y="-257"/>
    </contour>
    <contour>
      <point x="-864" y="-551" type="qcurve"/>
      <point x="-1070" y="-542" type="line"/>
      <point x="-1070" y="-488"/>
      <point x="-1008" y="-384"/>
      <point x="-898" y="-315"/>
      <point x="-826" y="-315" type="qcurve" smooth="yes"/>
      <point x="-772" y="-315"/>
      <point x="-676" y="-348"/>
      <point x="-583" y="-382"/>
      <point x="-532" y="-382" type="qcurve" smooth="yes"/>
      <point x="-501" y="-382"/>
      <point x="-454" y="-351"/>
      <point x="-454" y="-315" type="qcurve"/>
      <point x="-246" y="-324" type="line"/>
      <point x="-246" y="-381"/>
      <point x="-310" y="-485"/>
      <point x="-421" y="-551"/>
      <point x="-494" y="-551" type="qcurve" smooth="yes"/>
      <point x="-558" y="-551"/>
      <point x="-649" y="-517"/>
      <point x="-734" y="-484"/>
      <point x="-788" y="-484" type="qcurve" smooth="yes"/>
      <point x="-819" y="-484"/>
      <point x="-863" y="-515"/>
    </contour>
  </outline>
</glyph>
<glyph name="Germandbls" format="2">
  <advance width="1516"/>
  <unicode hex="1E9E"/>
  <outline>
    <contour>
      <point x="96" y="0" type="line"/>
      <point x="96" y="974" type="line" smooth="yes"/>
      <point x="96" y="1131"/>
      <point x="243" y="1373"/>
      <point x="501" y="1510"/>
      <point x="670" y="1510" type="qcurve" smooth="yes"/>
      <point x="777" y="1510"/>
      <point x="1039" y="1438"/>
      <point x="1304" y="1312"/>
      <point x="1414" y="1230" type="qcurve"/>
      <point x="1082" y="872" type="line"/>
      <point x="1192" y="851"/>
      <point x="1362" y="726"/>
      <point x="1458" y="545"/>
      <point x="1458" y="440" type="qcurve" smooth="yes"/>
      <point x="1458" y="305"/>
      <point x="1317" y="98"/>
      <point x="1069" y="-20"/>
      <point x="908" y="-20" type="qcurve" smooth="yes"/>
      <point x="817" y="-20"/>
      <point x="614" y="17"/>
      <point x="546" y="46" type="qcurve"/>
      <point x="652" y="332" type="line"/>
      <point x="706" y="310"/>
      <point x="823" y="286"/>
      <point x="870" y="286" type="qcurve" smooth="yes"/>
      <point x="968" y="286"/>
      <point x="1080" y="367"/>
      <point x="1080" y="440" type="qcurve" smooth="yes"/>
      <point x="1080" y="490"/>
      <point x="1044" y="569"/>
      <point x="976" y="625"/>
      <point x="879" y="654"/>
      <point x="818" y="654" type="qcurve" smooth="yes"/>
      <point x="686" y="654" type="line"/>
      <point x="686" y="864" type="line"/>
      <point x="942" y="1112" type="line"/>
      <point x="890" y="1153"/>
      <point x="745" y="1202"/>
      <point x="670" y="1202" type="qcurve" smooth="yes"/>
      <point x="617" y="1202"/>
      <point x="541" y="1147"/>
      <point x="500" y="1045"/>
      <point x="500" y="974" type="qcurve" smooth="yes"/>
      <point x="500" y="0" type="line"/>
    </contour>
  </outline>
</glyph>
<glyph name="vwelsh" format="2">
  <advance width="1496"/>
  <unicode hex="1EFD"/>
  <outline>
    <contour>
      <point x="792" y="710" type="qcurve"/>
      <point x="984" y="966" type="line"/>
      <point x="1068" y="917"/>
      <point x="1217" y="770"/>
      <point x="1310" y="586"/>
      <point x="1310" y="480" type="qcurve" smooth="yes"/>
      <point x="1310" y="317"/>
      <point x="1166" y="94"/>
      <point x="921" y="-20"/>
      <point x="768" y="-20" type="qcurve" smooth="yes"/>
      <point x="648" y="-20"/>
      <point x="439" y="51"/>
      <point x="281" y="197"/>
      <point x="192" y="422"/>
      <point x="192" y="576" type="qcurve" smooth="yes"/>
      <point x="192" y="642" type="line" smooth="yes"/>
      <point x="192" y="837"/>
      <point x="324" y="1162"/>
      <point x="554" y="1408"/>
      <point x="851" y="1565"/>
      <point x="1016" y="1592" type="qcurve"/>
      <point x="1132" y="1304" type="line"/>
      <point x="1038" y="1273"/>
      <point x="841" y="1165"/>
      <point x="673" y="1001"/>
      <point x="570" y="773"/>
      <point x="570" y="622" type="qcurve" smooth="yes"/>
      <point x="570" y="510" type="line" smooth="yes"/>
      <point x="570" y="440"/>
      <point x="603" y="337"/>
      <point x="684" y="282"/>
      <point x="756" y="282" type="qcurve" smooth="yes"/>
      <point x="807" y="282"/>
      <point x="886" y="323"/>
      <point x="930" y="401"/>
      <point x="930" y="456" type="qcurve" smooth="yes"/>
      <point x="930" y="506"/>
      <point x="901" y="593"/>
      <point x="840" y="672"/>
    </contour>
  </outline>
</glyph>
<glyph name="minus.superior" format="2">
  <advance width="930"/>
  <unicode hex="207B"/>
  <outline>
    <contour>
      <point x="824" y="1234" type="line"/>
      <point x="824" y="1012" type="line"/>
      <point x="108" y="1012" type="line"/>
      <point x="108" y="1234" type="line"/>
    </contour>
  </outline>
</glyph>
<glyph name="newsheqel" format="2">
  <advance width="2072"/>
  <unicode hex="20AA"/>
  <outline>
    <contour>
      <point x="120" y="1118" type="line"/>
      <point x="1044" y="1118" type="line"/>
      <point x="1266" y="1117"/>
      <point x="1469" y="906"/>
      <point x="1470" y="734" type="qcurve"/>
      <point x="1470" y="382" type="line"/>
      <point x="1086" y="382" type="line"/>
      <point x="1086" y="734" type="line"/>
      <point x="1085" y="777"/>
      <point x="1045" y="818"/>
      <point x="980" y="818" type="qcurve" smooth="yes"/>
      <point x="504" y="818" type="line"/>
      <point x="504" y="0" type="line"/>
      <point x="120" y="0" type="line"/>
    </contour>
    <contour>
      <point x="602" y="0" type="line"/>
      <point x="602" y="736" type="line"/>
      <point x="986" y="736" type="line"/>
      <point x="986" y="300" type="line"/>
      <point x="1464" y="300" type="line" smooth="yes"/>
      <point x="1517" y="300"/>
      <point x="1568" y="332"/>
      <point x="1568" y="384" type="qcurve" smooth="yes"/>
      <point x="1568" y="1102" type="line"/>
      <point x="1952" y="1102" type="line"/>
      <point x="1952" y="384" type="line"/>
      <point x="1951" y="212"/>
      <point x="1749" y="0"/>
      <point x="1528" y="0" type="qcurve" smooth="yes"/>
    </contour>
  </outline>
</glyph>
<glyph name="peso" format="2">
  <advance width="1553"/>
  <unicode hex="20B1"/>
  <outline>
    <contour>
      <point x="229" y="0" type="line"/>
      <point x="229" y="1490" type="line"/>
      <point x="778" y="1490" type="line" smooth="yes"/>
      <point x="1084" y="1490"/>
      <point x="1365" y="1201"/>
      <point x="1365" y="886" type="qcurve" smooth="yes"/>
      <point x="1365" y="579"/>
      <point x="1078" y="298"/>
      <point x="764" y="298" type="qcurve" smooth="yes"/>
      <point x="481" y="298" type="line"/>
      <point x="481" y="604" type="line"/>
      <point x="764" y="604" type="line" smooth="yes"/>
      <point x="841" y="604"/>
      <point x="925" y="665"/>
      <point x="959" y="790"/>
      <point x="959" y="886" type="qcurve" smooth="yes"/>
      <point x="959" y="982"/>
      <point x="925" y="1107"/>
      <point x="841" y="1168"/>
      <point x="764" y="1168" type="qcurve" smooth="yes"/>
      <point x="641" y="1168" type="line"/>
      <point x="641" y="0" type="line"/>
    </contour>
    <contour>
      <point x="100" y="694" type="line"/>
      <point x="100" y="840" type="line"/>
      <point x="1493" y="840" type="line"/>
      <point x="1493" y="694" type="line"/>
    </contour>
    <contour>
      <point x="100" y="932" type="line"/>
      <point x="100" y="1078" type="line"/>
      <point x="1493" y="1078" type="line"/>
      <point x="1493" y="932" type="line"/>
    </contour>
  </outline>
</glyph>
<glyph name="prescription" format="2">
  <advance width="1682"/>
  <unicode hex="211E"/>
  <outline>
    <contour>
      <point x="96" y="1490" type="line"/>
      <point x="722" y="1490" type="line" smooth="yes"/>
      <point x="905" y="1490"/>
      <point x="1160" y="1384"/>
      <point x="1294" y="1176"/>
      <point x="1294" y="1022" type="qcurve" smooth="yes"/>
      <point x="1294" y="900"/>
      <point x="1206" y="724"/>
      <point x="1062" y="607"/>
      <point x="978" y="570" type="qcurve" smooth="yes"/>
      <point x="902" y="536" type="line"/>
      <point x="340" y="536" type="line"/>
      <point x="338" y="856" type="line"/>
      <point x="728" y="856" type="line" smooth="yes"/>
      <point x="769" y="856"/>
      <point x="845" y="884"/>
      <point x="894" y="952"/>
      <point x="894" y="1010" type="qcurve" smooth="yes"/>
      <point x="894" y="1071"/>
      <point x="842" y="1138"/>
      <point x="763" y="1164"/>
      <point x="722" y="1164" type="qcurve" smooth="yes"/>
      <point x="500" y="1164" type="line"/>
      <point x="500" y="0" type="line"/>
      <point x="96" y="0" type="line"/>
    </contour>
    <contour>
      <point x="1260" y="0" type="line"/>
      <point x="766" y="686" type="line"/>
      <point x="1074" y="686" type="line"/>
      <point x="1574" y="0" type="line"/>
    </contour>
    <contour>
      <point x="1022" y="0" type="line"/>
      <point x="792" y="0" type="line"/>
      <point x="1292" y="686" type="line"/>
      <point x="1512" y="686" type="line"/>
    </contour>
  </outline>
</glyph>
<glyph name="aktieselskab" format="2">
  <advance width="2012"/>
  <unicode hex="214D"/>
  <outline>
    <contour>
      <point x="674" y="1048" type="line"/>
      <point x="674" y="884" type="line"/>
      <point x="250" y="884" type="line"/>
      <point x="250" y="1048" type="line"/>
    </contour>
    <contour>
      <point x="662" y="744" type="line"/>
      <point x="418" y="1344" type="line"/>
      <point x="506" y="1344" type="line"/>
      <point x="264" y="744" type="line"/>
      <point x="8" y="744" type="line"/>
      <point x="326" y="1490" type="line"/>
      <point x="598" y="1490" type="line"/>
      <point x="918" y="744" type="line"/>
    </contour>
    <contour>
      <point x="488" y="0" type="line"/>
      <point x="1512" y="1490" type="line"/>
      <point x="1752" y="1490" type="line"/>
      <point x="728" y="0" type="line"/>
    </contour>
    <contour>
      <point x="1952" y="508" type="qcurve"/>
      <point x="1714" y="492" type="line"/>
      <point x="1712" y="511"/>
      <point x="1661" y="556"/>
      <point x="1612" y="556" type="qcurve" smooth="yes"/>
      <point x="1582" y="556"/>
      <point x="1528" y="534"/>
      <point x="1528" y="514" type="qcurve" smooth="yes"/>
      <point x="1528" y="497"/>
      <point x="1561" y="479"/>
      <point x="1604" y="470" type="qcurve"/>
      <point x="1744" y="444" type="line" smooth="yes"/>
      <point x="1848" y="425"/>
      <point x="1976" y="331"/>
      <point x="1976" y="236" type="qcurve" smooth="yes"/>
      <point x="1976" y="159"/>
      <point x="1882" y="41"/>
      <point x="1719" y="-24"/>
      <point x="1616" y="-24" type="qcurve" smooth="yes"/>
      <point x="1454" y="-24"/>
      <point x="1262" y="106"/>
      <point x="1248" y="218" type="qcurve"/>
      <point x="1508" y="236" type="line"/>
      <point x="1515" y="201"/>
      <point x="1574" y="168"/>
      <point x="1616" y="168" type="qcurve" smooth="yes"/>
      <point x="1655" y="168"/>
      <point x="1706" y="192"/>
      <point x="1706" y="208" type="qcurve" smooth="yes"/>
      <point x="1706" y="226"/>
      <point x="1665" y="246"/>
      <point x="1630" y="252" type="qcurve"/>
      <point x="1496" y="278" type="line" smooth="yes"/>
      <point x="1378" y="301"/>
      <point x="1266" y="411"/>
      <point x="1266" y="500" type="qcurve" smooth="yes"/>
      <point x="1266" y="613"/>
      <point x="1455" y="744"/>
      <point x="1610" y="744" type="qcurve" smooth="yes"/>
      <point x="1774" y="744"/>
      <point x="1944" y="609"/>
    </contour>
  </outline>
</glyph>
<glyph name="arrowSW" format="2">
  <advance width="1615"/>
  <unicode hex="2199"/>
  <outline>
    <contour>
      <point x="250" y="1118" type="line"/>
      <point x="549" y="1118" type="line"/>
      <point x="549" y="760" type="line" smooth="yes"/>
      <point x="549" y="708"/>
      <point x="534" y="567"/>
      <point x="511" y="421"/>
      <point x="489" y="297"/>
      <point x="483" y="261" type="qcurve"/>
      <point x="425" y="312" type="line"/>
      <point x="446" y="344"/>
      <point x="524" y="459"/>
      <point x="616" y="581"/>
      <point x="656" y="621" type="qcurve" smooth="yes"/>
      <point x="1175" y="1141" type="line"/>
      <point x="1389" y="927" type="line"/>
      <point x="869" y="408" type="line" smooth="yes"/>
      <point x="829" y="368"/>
      <point x="707" y="276"/>
      <point x="592" y="198"/>
      <point x="560" y="177" type="qcurve"/>
      <point x="509" y="236" type="line"/>
      <point x="557" y="244"/>
      <point x="733" y="275"/>
      <point x="930" y="300"/>
      <point x="1009" y="300" type="qcurve" smooth="yes"/>
      <point x="1365" y="300" type="line"/>
      <point x="1365" y="0" type="line"/>
      <point x="250" y="0" type="line"/>
    </contour>
  </outline>
</glyph>
<glyph name="arrowclockwiseopencircle" format="2">
  <advance width="1954"/>
  <unicode hex="21BB"/>
  <outline>
    <contour>
      <point x="978" y="0" type="qcurve" smooth="yes"/>
      <point x="823" y="0"/>
      <point x="553" y="116"/>
      <point x="348" y="320"/>
      <point x="232" y="590"/>
      <point x="232" y="744" type="qcurve" smooth="yes"/>
      <point x="232" y="899"/>
      <point x="348" y="1169"/>
      <point x="553" y="1374"/>
      <point x="823" y="1490"/>
      <point x="978" y="1490" type="qcurve"/>
      <point x="978" y="1186" type="line"/>
      <point x="886" y="1186"/>
      <point x="725" y="1118"/>
      <point x="604" y="997"/>
      <point x="536" y="836"/>
      <point x="536" y="744" type="qcurve" smooth="yes"/>
      <point x="536" y="653"/>
      <point x="604" y="492"/>
      <point x="725" y="371"/>
      <point x="886" y="302"/>
      <point x="978" y="302" type="qcurve" smooth="yes"/>
      <point x="1070" y="302"/>
      <point x="1230" y="371"/>
      <point x="1351" y="492"/>
      <point x="1420" y="653"/>
      <point x="1420" y="744" type="qcurve"/>
      <point x="1722" y="744" type="line"/>
      <point x="1722" y="590"/>
      <point x="1607" y="320"/>
      <point x="1402" y="116"/>
      <point x="1132" y="0"/>
    </contour>
    <contour>
      <point x="954" y="796" type="line"/>
      <point x="954" y="1864" type="line"/>
      <point x="1502" y="1330" type="line"/>
    </contour>
  </outline>
</glyph>
<glyph name="brokencirclenorthwestarrow" format="2">
  <advance width="1954"/>
  <unicode hex="238B"/>
  <outline>
    <contour>
      <point x="336" y="1174" type="line"/>
      <point x="550" y="1386" type="line"/>
      <point x="1084" y="852" type="line"/>
      <point x="870" y="638" type="line"/>
    </contour>
    <contour>
      <point x="232" y="884" type="line"/>
      <point x="232" y="1490" type="line"/>
      <point x="838" y="1490" type="line"/>
    </contour>
    <contour>
      <point x="978" y="1186" type="qcurve"/>
      <point x="978" y="1490" type="line"/>
      <point x="1133" y="1490"/>
      <point x="1402" y="1374"/>
      <point x="1607" y="1169"/>
      <point x="1722" y="899"/>
      <point x="1722" y="744" type="qcurve" smooth="yes"/>
      <point x="1722" y="590"/>
      <point x="1607" y="320"/>
      <point x="1402" y="116"/>
      <point x="1133" y="0"/>
      <point x="978" y="0" type="qcurve" smooth="yes"/>
      <point x="824" y="0"/>
      <point x="554" y="116"/>
      <point x="348" y="320"/>
      <point x="232" y="590"/>
      <point x="232" y="744" type="qcurve"/>
      <point x="536" y="744" type="line"/>
      <point x="536" y="653"/>
      <point x="604" y="492"/>
      <point x="726" y="371"/>
      <point x="886" y="302"/>
      <point x="978" y="302" type="qcurve" smooth="yes"/>
      <point x="1070" y="302"/>
      <point x="1230" y="371"/>
      <point x="1352" y="492"/>
      <point x="1420" y="653"/>
      <point x="1420" y="744" type="qcurve" smooth="yes"/>
      <point x="1420" y="836"/>
      <point x="1352" y="997"/>
      <point x="1230" y="1118"/>
      <point x="1070" y="1186"/>
    </contour>
  </outline>
</glyph>
<glyph name="triagrt" format="2">
  <advance width="2014"/>
  <unicode hex="25B6"/>
  <unicode hex="25BA"/>
  <outline>
    <contour>
      <point x="230" y="-186" type="line"/>
      <point x="230" y="1676" type="line"/>
      <point x="1890" y="744" type="line"/>
    </contour>
  </outline>
</glyph>
<glyph name="openbullet" format="2">
  <advance width="816"/>
  <unicode hex="25E6"/>
  <outline>
    <contour>
      <point x="408" y="274" type="qcurve" smooth="yes"/>
      <point x="320" y="274"/>
      <point x="174" y="360"/>
      <point x="88" y="506"/>
      <point x="88" y="594" type="qcurve" smooth="yes"/>
      <point x="88" y="682"/>
      <point x="174" y="827"/>
      <point x="320" y="914"/>
      <point x="408" y="914" type="qcurve" smooth="yes"/>
      <point x="496" y="914"/>
      <point x="641" y="827"/>
      <point x="728" y="682"/>
      <point x="728" y="594" type="qcurve" smooth="yes"/>
      <point x="728" y="506"/>
      <point x="641" y="360"/>
      <point x="496" y="274"/>
    </contour>
    <contour>
      <point x="408" y="462" type="qcurve"/>
      <point x="461" y="463"/>
      <point x="538" y="539"/>
      <point x="538" y="594" type="qcurve" smooth="yes"/>
      <point x="538" y="647"/>
      <point x="461" y="724"/>
      <point x="408" y="724" type="qcurve" smooth="yes"/>
      <point x="353" y="724"/>
      <point x="276" y="647"/>
      <point x="276" y="594" type="qcurve" smooth="yes"/>
      <point x="276" y="539"/>
      <point x="353" y="463"/>
    </contour>
  </outline>
</glyph>
<glyph name="largecircle" format="2">
  <advance width="2846"/>
  <unicode hex="25EF"/>
  <outline>
    <contour>
      <point x="1424" y="-654" type="qcurve" smooth="yes"/>
      <point x="1192" y="-654"/>
      <point x="772" y="-513"/>
      <point x="423" y="-256"/>
      <point x="165" y="93"/>
      <point x="24" y="512"/>
      <point x="24" y="744" type="qcurve" smooth="yes"/>
      <point x="24" y="976"/>
      <point x="165" y="1396"/>
      <point x="423" y="1746"/>
      <point x="772" y="2003"/>
      <point x="1192" y="2144"/>
      <point x="1424" y="2144" type="qcurve" smooth="yes"/>
      <point x="1656" y="2144"/>
      <point x="2075" y="2003"/>
      <point x="2424" y="1746"/>
      <point x="2681" y="1396"/>
      <point x="2822" y="976"/>
      <point x="2822" y="744" type="qcurve" smooth="yes"/>
      <point x="2822" y="512"/>
      <point x="2681" y="93"/>
      <point x="2424" y="-256"/>
      <point x="2075" y="-513"/>
      <point x="1656" y="-654"/>
    </contour>
    <contour>
      <point x="1424" y="-422" type="qcurve" smooth="yes"/>
      <point x="1617" y="-422"/>
      <point x="1967" y="-304"/>
      <point x="2258" y="-90"/>
      <point x="2472" y="201"/>
      <point x="2590" y="551"/>
      <point x="2590" y="744" type="qcurve" smooth="yes"/>
      <point x="2590" y="937"/>
      <point x="2472" y="1288"/>
      <point x="2258" y="1580"/>
      <point x="1967" y="1794"/>
      <point x="1617" y="1912"/>
      <point x="1424" y="1912" type="qcurve" smooth="yes"/>
      <point x="1231" y="1912"/>
      <point x="881" y="1794"/>
      <point x="589" y="1580"/>
      <point x="375" y="1288"/>
      <point x="258" y="938"/>
      <point x="258" y="744" type="qcurve" smooth="yes"/>
      <point x="258" y="551"/>
      <point x="375" y="201"/>
      <point x="589" y="-90"/>
      <point x="881" y="-304"/>
      <point x="1231" y="-422"/>
    </contour>
  </outline>
</glyph>
<glyph name="iotifiedecomb-cy" format="2">
  <unicode hex="A69F"/>
  <outline>
    <contour>
      <point x="-696" y="1538" type="line"/>
      <point x="-696" y="1410" type="line"/>
      <point x="-1018" y="1410" type="line"/>
      <point x="-1018" y="1538" type="line"/>
    </contour>
    <contour>
      <point x="-948" y="1754" type="line"/>
      <point x="-948" y="1202" type="line"/>
      <point x="-1128" y="1202" type="line"/>
      <point x="-1128" y="1754" type="line"/>
    </contour>
    <contour>
      <point x="-568" y="1192" type="qcurve"/>
      <point x="-703" y="1193"/>
      <point x="-838" y="1357"/>
      <point x="-838" y="1474" type="qcurve" smooth="yes"/>
      <point x="-838" y="1484" type="line" smooth="yes"/>
      <point x="-838" y="1560"/>
      <point x="-779" y="1688"/>
      <point x="-657" y="1766"/>
      <point x="-564" y="1766" type="qcurve" smooth="yes"/>
      <point x="-493" y="1766"/>
      <point x="-385" y="1709"/>
      <point x="-323" y="1612"/>
      <point x="-322" y="1550" type="qcurve"/>
      <point x="-498" y="1550" type="line"/>
      <point x="-496" y="1579"/>
      <point x="-526" y="1624"/>
      <point x="-564" y="1624" type="qcurve" smooth="yes"/>
      <point x="-608" y="1624"/>
      <point x="-646" y="1573"/>
      <point x="-654" y="1507"/>
      <point x="-654" y="1484" type="qcurve" smooth="yes"/>
      <point x="-654" y="1474" type="line"/>
      <point x="-655" y="1429"/>
      <point x="-625" y="1336"/>
      <point x="-568" y="1336" type="qcurve" smooth="yes"/>
      <point x="-531" y="1336"/>
      <point x="-496" y="1390"/>
      <point x="-498" y="1422" type="qcurve"/>
      <point x="-322" y="1422" type="line"/>
      <point x="-323" y="1311"/>
      <point x="-457" y="1193"/>
    </contour>
    <contour>
      <point x="-702" y="1434" type="line"/>
      <point x="-702" y="1524" type="line"/>
      <point x="-536" y="1524" type="line"/>
      <point x="-536" y="1434" type="line"/>
    </contour>
  </outline>
</glyph>
<glyph name="one.tf.ss01" format="2">
  <advance width="1328"/>
  <unicode hex="E072"/>
  <unicode hex="E07C"/>
  <outline>
    <contour>
      <point x="507" y="0" type="line"/>
      <point x="507" y="1061" type="line"/>
      <point x="580" y="950" type="line"/>
      <point x="544" y="950"/>
      <point x="468" y="950"/>
      <point x="386" y="950" type="curve" smooth="yes"/>
      <point x="308" y="950"/>
      <point x="208" y="950"/>
      <point x="150" y="950" type="curve"/>
      <point x="150" y="1228" type="line"/>
      <point x="182" y="1228"/>
      <point x="233" y="1228"/>
      <point x="265" y="1230" type="curve" smooth="yes"/>
      <point x="470" y="1243"/>
      <point x="605" y="1334"/>
      <point x="649" y="1490" type="curve"/>
      <point x="911" y="1490" type="line"/>
      <point x="911" y="0" type="line"/>
    </contour>
    <contour>
      <point x="169" y="0" type="line"/>
      <point x="169" y="322" type="line"/>
      <point x="1200" y="322" type="line"/>
      <point x="1200" y="0" type="line"/>
    </contour>
  </outline>
</glyph>
<glyph name="zero.dnom" format="2">
  <advance width="860"/>
  <unicode hex="E0B4"/>
  <anchor x="447" y="872" name="m.uni030F_1"/>
  <outline>
    <contour>
      <point x="430" y="-9" type="qcurve" smooth="yes"/>
      <point x="255" y="-9"/>
      <point x="59" y="215"/>
      <point x="59" y="420" type="qcurve" smooth="yes"/>
      <point x="59" y="626"/>
      <point x="255" y="851"/>
      <point x="430" y="851" type="qcurve" smooth="yes"/>
      <point x="606" y="851"/>
      <point x="801" y="625"/>
      <point x="801" y="420" type="qcurve" smooth="yes"/>
      <point x="801" y="215"/>
      <point x="606" y="-9"/>
    </contour>
    <contour>
      <point x="430" y="187" type="qcurve" smooth="yes"/>
      <point x="486" y="187"/>
      <point x="540" y="302"/>
      <point x="540" y="420" type="qcurve" smooth="yes"/>
      <point x="540" y="539"/>
      <point x="486" y="657"/>
      <point x="430" y="657" type="qcurve" smooth="yes"/>
      <point x="375" y="657"/>
      <point x="320" y="538"/>
      <point x="320" y="420" type="qcurve" smooth="yes"/>
      <point x="320" y="302"/>
      <point x="373" y="187"/>
    </contour>
  </outline>
</glyph>
<glyph name="five.dnom" format="2">
  <advance width="825"/>
  <unicode hex="E0B9"/>
  <outline>
    <contour>
      <point x="430" y="-9" type="qcurve" smooth="yes"/>
      <point x="334" y="-9"/>
      <point x="180" y="60"/>
      <point x="93" y="176"/>
      <point x="96" y="247" type="qcurve"/>
      <point x="332" y="247" type="line"/>
      <point x="332" y="208"/>
      <point x="392" y="170"/>
      <point x="429" y="170" type="qcurve" smooth="yes"/>
      <point x="476" y="170"/>
      <point x="537" y="231"/>
      <point x="537" y="284" type="qcurve" smooth="yes"/>
      <point x="537" y="337"/>
      <point x="478" y="396"/>
      <point x="429" y="396" type="qcurve" smooth="yes"/>
      <point x="400" y="396"/>
      <point x="343" y="364"/>
      <point x="326" y="334" type="qcurve"/>
      <point x="117" y="334" type="line"/>
      <point x="163" y="842" type="line"/>
      <point x="714" y="842" type="line"/>
      <point x="714" y="652" type="line"/>
      <point x="343" y="652" type="line"/>
      <point x="325" y="430" type="line"/>
      <point x="332" y="430" type="line"/>
      <point x="346" y="480"/>
      <point x="458" y="552"/>
      <point x="537" y="552" type="qcurve" smooth="yes"/>
      <point x="610" y="552"/>
      <point x="712" y="488"/>
      <point x="766" y="371"/>
      <point x="766" y="291" type="qcurve" smooth="yes"/>
      <point x="766" y="203"/>
      <point x="683" y="67"/>
      <point x="532" y="-9"/>
    </contour>
  </outline>
</glyph>
<glyph name="six.dnom" format="2">
  <advance width="775"/>
  <unicode hex="E0BA"/>
  <outline>
    <contour>
      <point x="390" y="-11" type="qcurve" smooth="yes"/>
      <point x="313" y="-11"/>
      <point x="160" y="44"/>
      <point x="59" y="170"/>
      <point x="59" y="276" type="qcurve" smooth="yes"/>
      <point x="59" y="347"/>
      <point x="112" y="482"/>
      <point x="155" y="549" type="qcurve" smooth="yes"/>
      <point x="346" y="842" type="line"/>
      <point x="558" y="842" type="line"/>
      <point x="315" y="477" type="line"/>
      <point x="215" y="477" type="line"/>
      <point x="235" y="506"/>
      <point x="378" y="554"/>
      <point x="466" y="554" type="qcurve" smooth="yes"/>
      <point x="571" y="554"/>
      <point x="716" y="423"/>
      <point x="716" y="298" type="qcurve" smooth="yes"/>
      <point x="716" y="151"/>
      <point x="530" y="-11"/>
    </contour>
    <contour>
      <point x="392" y="167" type="qcurve" smooth="yes"/>
      <point x="439" y="167"/>
      <point x="500" y="233"/>
      <point x="500" y="283" type="qcurve" smooth="yes"/>
      <point x="500" y="333"/>
      <point x="439" y="399"/>
      <point x="392" y="399" type="qcurve" smooth="yes"/>
      <point x="348" y="399"/>
      <point x="286" y="333"/>
      <point x="286" y="283" type="qcurve" smooth="yes"/>
      <point x="286" y="233"/>
      <point x="348" y="167"/>
    </contour>
  </outline>
</glyph>
<glyph name="eight.dnom" format="2">
  <advance width="828"/>
  <unicode hex="E0BC"/>
  <outline>
    <contour>
      <point x="413" y="-9" type="qcurve" smooth="yes"/>
      <point x="315" y="-9"/>
      <point x="154" y="57"/>
      <point x="59" y="165"/>
      <point x="59" y="229" type="qcurve" smooth="yes"/>
      <point x="59" y="276"/>
      <point x="109" y="362"/>
      <point x="187" y="422"/>
      <point x="229" y="430" type="qcurve"/>
      <point x="229" y="441" type="line"/>
      <point x="175" y="453"/>
      <point x="93" y="561"/>
      <point x="93" y="624" type="qcurve" smooth="yes"/>
      <point x="93" y="688"/>
      <point x="179" y="790"/>
      <point x="324" y="851"/>
      <point x="413" y="851" type="qcurve" smooth="yes"/>
      <point x="502" y="851"/>
      <point x="649" y="789"/>
      <point x="736" y="686"/>
      <point x="736" y="624" type="qcurve" smooth="yes"/>
      <point x="736" y="561"/>
      <point x="652" y="453"/>
      <point x="599" y="441" type="qcurve"/>
      <point x="599" y="430" type="line"/>
      <point x="640" y="422"/>
      <point x="718" y="362"/>
      <point x="769" y="276"/>
      <point x="769" y="229" type="qcurve" smooth="yes"/>
      <point x="769" y="165"/>
      <point x="674" y="57"/>
      <point x="513" y="-9"/>
    </contour>
    <contour>
      <point x="413" y="153" type="qcurve" smooth="yes"/>
      <point x="457" y="153"/>
      <point x="513" y="209"/>
      <point x="513" y="252" type="qcurve" smooth="yes"/>
      <point x="513" y="293"/>
      <point x="457" y="345"/>
      <point x="413" y="345" type="qcurve" smooth="yes"/>
      <point x="372" y="345"/>
      <point x="315" y="293"/>
      <point x="315" y="252" type="qcurve" smooth="yes"/>
      <point x="315" y="210"/>
      <point x="372" y="153"/>
    </contour>
    <contour>
      <point x="413" y="503" type="qcurve" smooth="yes"/>
      <point x="451" y="503"/>
      <point x="503" y="556"/>
      <point x="503" y="592" type="qcurve" smooth="yes"/>
      <point x="503" y="628"/>
      <point x="451" y="679"/>
      <point x="413" y="679" type="qcurve" smooth="yes"/>
      <point x="377" y="679"/>
      <point x="325" y="629"/>
      <point x="325" y="592" type="qcurve" smooth="yes"/>
      <point x="325" y="557"/>
      <point x="377" y="503"/>
    </contour>
  </outline>
</glyph>
<glyph name="equal.numr" format="2">
  <advance width="834"/>
  <unicode hex="E0D9"/>
  <outline>
    <contour>
      <point x="96" y="1182" type="line"/>
      <point x="96" y="1376" type="line"/>
      <point x="738" y="1376" type="line"/>
      <point x="738" y="1182" type="line"/>
    </contour>
    <contour>
      <point x="96" y="902" type="line"/>
      <point x="96" y="1096" type="line"/>
      <point x="738" y="1096" type="line"/>
      <point x="738" y="902" type="line"/>
    </contour>
  </outline>
</glyph>
<glyph name="jsupmod.ccmp" format="2">
  <advance width="702"/>
  <unicode hex="E0F5"/>
  <outline>
    <contour>
      <point x="334" y="1472" type="line"/>
      <point x="582" y="1472" type="line"/>
      <point x="582" y="664" type="line"/>
      <point x="581" y="500"/>
      <point x="396" y="350"/>
      <point x="250" y="350" type="qcurve" smooth="yes"/>
      <point x="213" y="350"/>
      <point x="159" y="354"/>
      <point x="122" y="360" type="qcurve"/>
      <point x="122" y="558" type="line"/>
      <point x="142" y="557"/>
      <point x="179" y="552"/>
      <point x="204" y="552" type="qcurve" smooth="yes"/>
      <point x="251" y="552"/>
      <point x="334" y="611"/>
      <point x="334" y="664" type="qcurve" smooth="yes"/>
    </contour>
  </outline>
</glyph>
<glyph name="tildeacute.lc" format="2">
  <advance width="1024"/>
  <unicode hex="E112"/>
  <outline>
    <contour>
      <point x="660" y="1232" type="qcurve" smooth="yes"/>
      <point x="603" y="1232"/>
      <point x="524" y="1268"/>
      <point x="467" y="1316"/>
      <point x="418" y="1352"/>
      <point x="390" y="1352" type="qcurve" smooth="yes"/>
      <point x="355" y="1352"/>
      <point x="316" y="1295"/>
      <point x="314" y="1240" type="qcurve"/>
      <point x="116" y="1240" type="line"/>
      <point x="119" y="1398"/>
      <point x="261" y="1552"/>
      <point x="364" y="1552" type="qcurve" smooth="yes"/>
      <point x="420" y="1552"/>
      <point x="500" y="1517"/>
      <point x="559" y="1470"/>
      <point x="608" y="1435"/>
      <point x="634" y="1435" type="qcurve" smooth="yes"/>
      <point x="676" y="1435"/>
      <point x="711" y="1494"/>
      <point x="712" y="1546" type="qcurve"/>
      <point x="908" y="1546" type="line"/>
      <point x="906" y="1392"/>
      <point x="762" y="1232"/>
    </contour>
    <contour>
      <point x="396" y="1632" type="line"/>
      <point x="506" y="1893" type="line"/>
      <point x="782" y="1893" type="line"/>
      <point x="607" y="1632" type="line"/>
    </contour>
  </outline>
</glyph>
<glyph name="Elcyr.loclBGR" format="2">
  <advance width="1628"/>
  <outline>
    <contour>
      <point x="1056" y="0" type="line"/>
      <point x="756" y="1100" type="line"/>
      <point x="704" y="1490" type="line"/>
      <point x="986" y="1490" type="line"/>
      <point x="1492" y="0" type="line"/>
    </contour>
    <contour>
      <point x="786" y="1100" type="line"/>
      <point x="482" y="0" type="line"/>
      <point x="46" y="0" type="line"/>
      <point x="552" y="1490" type="line"/>
      <point x="834" y="1490" type="line"/>
    </contour>
  </outline>
</glyph>
<glyph name="Pecyr.turn" format="2">
  <advance width="1498"/>
  <anchor x="785" y="1490" name="m.uni030F_1"/>
  <outline>
    <contour>
      <point x="1402" y="0" type="line"/>
      <point x="96" y="0" type="line"/>
      <point x="96" y="1490" type="line"/>
      <point x="500" y="1490" type="line"/>
      <point x="500" y="326" type="line"/>
      <point x="998" y="326" type="line"/>
      <point x="998" y="1490" type="line"/>
      <point x="1402" y="1490" type="line"/>
    </contour>
  </outline>
</glyph>
<glyph name="archdblsubcomb" format="2">
  <advance width="30"/>
  <outline>
    <contour>
      <point x="-1120" y="-110" type="qcurve"/>
      <point x="-994" y="-110" type="line"/>
      <point x="-995" y="-156"/>
      <point x="-930" y="-212"/>
      <point x="-878" y="-212" type="qcurve" smooth="yes"/>
      <point x="-831" y="-212"/>
      <point x="-762" y="-156"/>
      <point x="-762" y="-110" type="qcurve"/>
      <point x="-634" y="-110" type="line"/>
      <point x="-634" y="-181"/>
      <point x="-702" y="-300"/>
      <point x="-813" y="-370"/>
      <point x="-878" y="-370" type="qcurve" smooth="yes"/>
      <point x="-948" y="-370"/>
      <point x="-1057" y="-300"/>
      <point x="-1120" y="-181"/>
    </contour>
    <contour>
      <point x="-762" y="-110" type="qcurve"/>
      <point x="-634" y="-110" type="line"/>
      <point x="-634" y="-156"/>
      <point x="-572" y="-212"/>
      <point x="-526" y="-212" type="qcurve" smooth="yes"/>
      <point x="-472" y="-212"/>
      <point x="-408" y="-156"/>
      <point x="-408" y="-110" type="qcurve"/>
      <point x="-276" y="-110" type="line"/>
      <point x="-276" y="-181"/>
      <point x="-343" y="-300"/>
      <point x="-456" y="-370"/>
      <point x="-526" y="-370" type="qcurve" smooth="yes"/>
      <point x="-591" y="-370"/>
      <point x="-699" y="-300"/>
      <point x="-762" y="-181"/>
    </contour>
  </outline>
</glyph>
<glyph name="crossbar_left_long" format="2">
  <advance width="1166"/>
  <outline>
    <contour>
      <point x="128" y="621" type="line"/>
      <point x="128" y="869" type="line"/>
      <point x="1014" y="869" type="line"/>
      <point x="1014" y="621" type="line"/>
    </contour>
  </outline>
</glyph>
<glyph name="dieresistonos_narrow" format="2">
  <advance width="1234"/>
  <outline>
    <contour>
      <point x="514" y="1632" type="line"/>
      <point x="539" y="1893" type="line"/>
      <point x="808" y="1893" type="line"/>
      <point x="693" y="1632" type="line"/>
    </contour>
    <contour>
      <point x="214" y="1260" type="line"/>
      <point x="214" y="1524" type="line"/>
      <point x="536" y="1524" type="line"/>
      <point x="536" y="1260" type="line"/>
    </contour>
    <contour>
      <point x="676" y="1260" type="line"/>
      <point x="676" y="1524" type="line"/>
      <point x="998" y="1524" type="line"/>
      <point x="998" y="1260" type="line"/>
    </contour>
  </outline>
</glyph>
<glyph name="hooksubpalatcomb" format="2">
  <advance width="8"/>
  <outline>
    <contour>
      <point x="-326" y="302" type="line"/>
      <point x="-88" y="302" type="line"/>
      <point x="-88" y="-44" type="line"/>
      <point x="-87" y="-218"/>
      <point x="-290" y="-408"/>
      <point x="-462" y="-408" type="qcurve" smooth="yes"/>
      <point x="-502" y="-408"/>
      <point x="-564" y="-403"/>
      <point x="-606" y="-392" type="qcurve"/>
      <point x="-606" y="-154" type="line"/>
      <point x="-581" y="-156"/>
      <point x="-539" y="-160"/>
      <point x="-514" y="-160" type="qcurve" smooth="yes"/>
      <point x="-478" y="-160"/>
      <point x="-390" y="-144"/>
      <point x="-326" y="-94"/>
      <point x="-326" y="-44" type="qcurve" smooth="yes"/>
    </contour>
  </outline>
</glyph>
<glyph name="ogonek.y" format="2">
  <advance width="653"/>
  <outline>
    <contour>
      <point x="352" y="-426" type="qcurve" smooth="yes"/>
      <point x="231" y="-426"/>
      <point x="107" y="-332"/>
      <point x="64" y="-191"/>
      <point x="64" y="-120" type="qcurve"/>
      <point x="417" y="0" type="line"/>
      <point x="380" y="-114" type="line" smooth="yes"/>
      <point x="364" y="-162"/>
      <point x="403" y="-214"/>
      <point x="452" y="-214" type="qcurve" smooth="yes"/>
      <point x="474" y="-214"/>
      <point x="505" y="-204"/>
      <point x="520" y="-195" type="qcurve"/>
      <point x="589" y="-375" type="line"/>
      <point x="546" y="-399"/>
      <point x="414" y="-426"/>
    </contour>
  </outline>
</glyph>
<glyph name="questiondown.case" format="2">
  <advance width="1230"/>
  <outline>
    <contour>
      <point x="492" y="1024" type="line"/>
      <point x="492" y="990" type="line" smooth="yes"/>
      <point x="492" y="874"/>
      <point x="437" y="816"/>
      <point x="332" y="754" type="curve" smooth="yes"/>
      <point x="189" y="671"/>
      <point x="92" y="567"/>
      <point x="92" y="390" type="curve" smooth="yes"/>
      <point x="92" y="117"/>
      <point x="323" y="-20"/>
      <point x="634" y="-20" type="curve" smooth="yes"/>
      <point x="917" y="-20"/>
      <point x="1154" y="114"/>
      <point x="1154" y="434" type="curve"/>
      <point x="782" y="434" type="line"/>
      <point x="782" y="350"/>
      <point x="715" y="292"/>
      <point x="636" y="292" type="curve" smooth="yes"/>
      <point x="564" y="292"/>
      <point x="506" y="341"/>
      <point x="506" y="414" type="curve" smooth="yes"/>
      <point x="506" y="495"/>
      <point x="576" y="545"/>
      <point x="668" y="606" type="curve" smooth="yes"/>
      <point x="777" y="676"/>
      <point x="834" y="750"/>
      <point x="834" y="990" type="curve" smooth="yes"/>
      <point x="834" y="1024" type="line"/>
    </contour>
    <contour>
      <point x="459" y="1490" type="line"/>
      <point x="459" y="1139" type="line"/>
      <point x="867" y="1139" type="line"/>
      <point x="867" y="1490" type="line"/>
    </contour>
  </outline>
</glyph>
<glyph name="quoteleft.ss03" format="2">
  <advance width="677"/>
  <outline>
    <contour>
      <point x="485" y="1507" type="qcurve"/>
      <point x="529" y="1370" type="line"/>
      <point x="426" y="1337"/>
      <point x="315" y="1247"/>
      <point x="272" y="1144"/>
      <point x="272" y="1089" type="qcurve" smooth="yes"/>
      <point x="272" y="1061"/>
      <point x="272" y="1006"/>
      <point x="272" y="978" type="qcurve"/>
      <point x="215" y="978" type="line"/>
      <point x="215" y="1064"/>
      <point x="275" y="1174"/>
      <point x="360" y="1174" type="qcurve" smooth="yes"/>
      <point x="447" y="1174"/>
      <point x="557" y="1064"/>
      <point x="557" y="978" type="qcurve" smooth="yes"/>
      <point x="557" y="890"/>
      <point x="438" y="778"/>
      <point x="344" y="778" type="qcurve" smooth="yes"/>
      <point x="253" y="778"/>
      <point x="120" y="895"/>
      <point x="120" y="1017" type="qcurve" smooth="yes"/>
      <point x="120" y="1129"/>
      <point x="185" y="1317"/>
      <point x="345" y="1461"/>
    </contour>
  </outline>
</glyph>
<glyph name="r.sc" format="2">
  <advance width="1224"/>
  <outline>
    <contour>
      <point x="102" y="0" type="line"/>
      <point x="102" y="1118" type="line"/>
      <point x="678" y="1118" type="line" smooth="yes"/>
      <point x="900" y="1118"/>
      <point x="1160" y="903"/>
      <point x="1160" y="720" type="qcurve" smooth="yes"/>
      <point x="1160" y="548"/>
      <point x="892" y="346"/>
      <point x="663" y="346" type="qcurve" smooth="yes"/>
      <point x="322" y="346" type="line"/>
      <point x="322" y="612" type="line"/>
      <point x="612" y="612" type="line" smooth="yes"/>
      <point x="689" y="612"/>
      <point x="764" y="663"/>
      <point x="764" y="714" type="qcurve" smooth="yes"/>
      <point x="764" y="767"/>
      <point x="692" y="818"/>
      <point x="618" y="818" type="qcurve" smooth="yes"/>
      <point x="476" y="818" type="line"/>
      <point x="476" y="0" type="line"/>
    </contour>
    <contour>
      <point x="776" y="0" type="line"/>
      <point x="466" y="517" type="line"/>
      <point x="885" y="517" type="line"/>
      <point x="1204" y="0" type="line"/>
    </contour>
  </outline>
</glyph>
<glyph name="rinv.sc" format="2">
  <advance width="1224"/>
  <outline>
    <contour>
      <point x="102" y="0" type="line"/>
      <point x="102" y="1118" type="line"/>
      <point x="476" y="1118" type="line"/>
      <point x="476" y="300" type="line"/>
      <point x="618" y="300" type="line" smooth="yes"/>
      <point x="692" y="300"/>
      <point x="764" y="352"/>
      <point x="764" y="404" type="qcurve" smooth="yes"/>
      <point x="764" y="455"/>
      <point x="689" y="506"/>
      <point x="612" y="506" type="qcurve" smooth="yes"/>
      <point x="322" y="506" type="line"/>
      <point x="322" y="772" type="line"/>
      <point x="663" y="772" type="line" smooth="yes"/>
      <point x="892" y="772"/>
      <point x="1160" y="571"/>
      <point x="1160" y="398" type="qcurve" smooth="yes"/>
      <point x="1160" y="215"/>
      <point x="900" y="0"/>
      <point x="678" y="0" type="qcurve" smooth="yes"/>
    </contour>
    <contour>
      <point x="466" y="601" type="line"/>
      <point x="776" y="1118" type="line"/>
      <point x="1204" y="1118" type="line"/>
      <point x="885" y="601" type="line"/>
    </contour>
  </outline>
</glyph>
<glyph name="tildedieresiscomb.lc" format="2">
  <advance width="1024"/>
  <outline>
    <contour>
      <point x="660" y="1232" type="qcurve" smooth="yes"/>
      <point x="603" y="1232"/>
      <point x="524" y="1268"/>
      <point x="467" y="1316"/>
      <point x="418" y="1352"/>
      <point x="390" y="1352" type="qcurve" smooth="yes"/>
      <point x="355" y="1352"/>
      <point x="316" y="1295"/>
      <point x="314" y="1240" type="qcurve"/>
      <point x="116" y="1240" type="line"/>
      <point x="119" y="1398"/>
      <point x="261" y="1552"/>
      <point x="364" y="1552" type="qcurve" smooth="yes"/>
      <point x="420" y="1552"/>
      <point x="500" y="1517"/>
      <point x="559" y="1470"/>
      <point x="608" y="1435"/>
      <point x="634" y="1435" type="qcurve" smooth="yes"/>
      <point x="676" y="1435"/>
      <point x="711" y="1494"/>
      <point x="712" y="1546" type="qcurve"/>
      <point x="908" y="1546" type="line"/>
      <point x="906" y="1392"/>
      <point x="762" y="1232"/>
    </contour>
    <contour>
      <point x="743" y="1629" type="qcurve" smooth="yes"/>
      <point x="670" y="1629"/>
      <point x="567" y="1718"/>
      <point x="567" y="1780" type="qcurve" smooth="yes"/>
      <point x="567" y="1843"/>
      <point x="670" y="1932"/>
      <point x="743" y="1932" type="qcurve" smooth="yes"/>
      <point x="816" y="1932"/>
      <point x="919" y="1843"/>
      <point x="919" y="1780" type="qcurve" smooth="yes"/>
      <point x="919" y="1718"/>
      <point x="816" y="1629"/>
    </contour>
    <contour>
      <point x="281" y="1629" type="qcurve" smooth="yes"/>
      <point x="208" y="1629"/>
      <point x="105" y="1718"/>
      <point x="105" y="1780" type="qcurve" smooth="yes"/>
      <point x="105" y="1843"/>
      <point x="208" y="1932"/>
      <point x="281" y="1932" type="qcurve" smooth="yes"/>
      <point x="354" y="1932"/>
      <point x="457" y="1843"/>
      <point x="457" y="1780" type="qcurve" smooth="yes"/>
      <point x="457" y="1718"/>
      <point x="354" y="1629"/>
    </contour>
  </outline>
</glyph>
